<svg width="120" height="40" viewBox="0 0 120 40" fill="none" xmlns="http://www.w3.org/2000/svg">
<rect x="0.5" y="0.5" width="119" height="39" rx="19.5" fill="#F2613F" stroke="white"/>
<path d="M35 21.7143H26.8571V29H24.1429V21.7143H16V19.2857H24.1429V12H26.8571V19.2857H35V21.7143Z" fill="white"/>
<path d="M40.2039 21.376C40.2039 20.032 40.4759 18.856 41.0199 17.848C41.5639 16.824 42.3079 16.032 43.2519 15.472C44.2119 14.912 45.2759 14.632 46.4439 14.632C47.5959 14.632 48.5959 14.88 49.4439 15.376C50.2919 15.872 50.9239 16.496 51.3399 17.248V14.848H53.5479V28H51.3399V25.552C50.9079 26.32 50.2599 26.96 49.3959 27.472C48.5479 27.968 47.5559 28.216 46.4199 28.216C45.2519 28.216 44.1959 27.928 43.2519 27.352C42.3079 26.776 41.5639 25.968 41.0199 24.928C40.4759 23.888 40.2039 22.704 40.2039 21.376ZM51.3399 21.4C51.3399 20.408 51.1399 19.544 50.7399 18.808C50.3399 18.072 49.7959 17.512 49.1079 17.128C48.4359 16.728 47.6919 16.528 46.8759 16.528C46.0599 16.528 45.3159 16.72 44.6439 17.104C43.9719 17.488 43.4359 18.048 43.0359 18.784C42.6359 19.52 42.4359 20.384 42.4359 21.376C42.4359 22.384 42.6359 23.264 43.0359 24.016C43.4359 24.752 43.9719 25.32 44.6439 25.72C45.3159 26.104 46.0599 26.296 46.8759 26.296C47.6919 26.296 48.4359 26.104 49.1079 25.72C49.7959 25.32 50.3399 24.752 50.7399 24.016C51.1399 23.264 51.3399 22.392 51.3399 21.4ZM56.4226 21.376C56.4226 20.032 56.6946 18.856 57.2386 17.848C57.7826 16.824 58.5266 16.032 59.4706 15.472C60.4306 14.912 61.5026 14.632 62.6866 14.632C63.7106 14.632 64.6626 14.872 65.5426 15.352C66.4226 15.816 67.0946 16.432 67.5586 17.2V10.24H69.7666V28H67.5586V25.528C67.1266 26.312 66.4866 26.96 65.6386 27.472C64.7906 27.968 63.7986 28.216 62.6626 28.216C61.4946 28.216 60.4306 27.928 59.4706 27.352C58.5266 26.776 57.7826 25.968 57.2386 24.928C56.6946 23.888 56.4226 22.704 56.4226 21.376ZM67.5586 21.4C67.5586 20.408 67.3586 19.544 66.9586 18.808C66.5586 18.072 66.0146 17.512 65.3266 17.128C64.6546 16.728 63.9106 16.528 63.0946 16.528C62.2786 16.528 61.5346 16.72 60.8626 17.104C60.1906 17.488 59.6546 18.048 59.2546 18.784C58.8546 19.52 58.6546 20.384 58.6546 21.376C58.6546 22.384 58.8546 23.264 59.2546 24.016C59.6546 24.752 60.1906 25.32 60.8626 25.72C61.5346 26.104 62.2786 26.296 63.0946 26.296C63.9106 26.296 64.6546 26.104 65.3266 25.72C66.0146 25.32 66.5586 24.752 66.9586 24.016C67.3586 23.264 67.5586 22.392 67.5586 21.4ZM72.6414 21.376C72.6414 20.032 72.9134 18.856 73.4574 17.848C74.0014 16.824 74.7454 16.032 75.6894 15.472C76.6494 14.912 77.7214 14.632 78.9054 14.632C79.9294 14.632 80.8814 14.872 81.7614 15.352C82.6414 15.816 83.3134 16.432 83.7774 17.2V10.24H85.9854V28H83.7774V25.528C83.3454 26.312 82.7054 26.96 81.8574 27.472C81.0094 27.968 80.0174 28.216 78.8814 28.216C77.7134 28.216 76.6494 27.928 75.6894 27.352C74.7454 26.776 74.0014 25.968 73.4574 24.928C72.9134 23.888 72.6414 22.704 72.6414 21.376ZM83.7774 21.4C83.7774 20.408 83.5774 19.544 83.1774 18.808C82.7774 18.072 82.2334 17.512 81.5454 17.128C80.8734 16.728 80.1294 16.528 79.3134 16.528C78.4974 16.528 77.7534 16.72 77.0814 17.104C76.4094 17.488 75.8734 18.048 75.4734 18.784C75.0734 19.52 74.8734 20.384 74.8734 21.376C74.8734 22.384 75.0734 23.264 75.4734 24.016C75.8734 24.752 76.4094 25.32 77.0814 25.72C77.7534 26.104 78.4974 26.296 79.3134 26.296C80.1294 26.296 80.8734 26.104 81.5454 25.72C82.2334 25.32 82.7774 24.752 83.1774 24.016C83.5774 23.264 83.7774 22.392 83.7774 21.4Z" fill="white"/>
</svg>
