<svg width="129" height="26" viewBox="0 0 129 26" fill="none" xmlns="http://www.w3.org/2000/svg">
<path d="M0.18 15.56V12.068H12.204V15.56H0.18ZM4.428 19.988V7.604H7.884V19.988H4.428ZM24.831 26L24.075 22.004H18.387L17.631 26H12.735L17.595 0.799998H25.047L29.655 26H24.831ZM21.159 5.48L19.755 13.868L18.963 18.152H23.463L22.635 13.868L21.231 5.48H21.159ZM45.3277 26H41.6917L41.0437 24.704C40.5157 25.184 40.0117 25.52 39.5317 25.712C39.0757 25.904 38.3797 26 37.4437 26H34.3117C33.2557 24.992 32.4157 23.672 31.7917 22.04C31.1917 20.408 30.8917 18.584 30.8917 16.568C30.8917 14.528 31.1917 12.8 31.7917 11.384C32.4157 9.968 33.2917 8.708 34.4197 7.604H37.5157C38.7877 7.604 39.7957 7.94 40.5397 8.612V0.799998H45.3277V26ZM40.5397 11.384H37.0837C36.1957 12.896 35.7517 14.756 35.7517 16.964C35.7517 19.148 36.1837 20.9 37.0477 22.22H40.5397V11.384ZM62.3433 26H58.7073L58.0593 24.704C57.5313 25.184 57.0273 25.52 56.5473 25.712C56.0913 25.904 55.3953 26 54.4593 26H51.3273C50.2713 24.992 49.4313 23.672 48.8073 22.04C48.2073 20.408 47.9073 18.584 47.9073 16.568C47.9073 14.528 48.2073 12.8 48.8073 11.384C49.4313 9.968 50.3073 8.708 51.4353 7.604H54.5313C55.8033 7.604 56.8113 7.94 57.5553 8.612V0.799998H62.3433V26ZM57.5553 11.384H54.0993C53.2113 12.896 52.7673 14.756 52.7673 16.964C52.7673 19.148 53.1993 20.9 54.0633 22.22H57.5553V11.384ZM77.6005 21.824H80.6245C81.1525 21.248 81.5245 20.672 81.7405 20.096C81.9805 19.496 82.1005 18.62 82.1005 17.468V0.799998H87.0325V15.668C87.0325 16.892 86.9965 17.852 86.9245 18.548C86.8765 19.22 86.7325 20.048 86.4925 21.032C86.0845 22.784 84.9565 24.44 83.1085 26H75.1165C73.2685 24.488 72.1405 22.832 71.7325 21.032C71.3725 19.568 71.1925 17.78 71.1925 15.668V0.799998H76.1245V17.468C76.1245 18.62 76.2325 19.496 76.4485 20.096C76.6885 20.672 77.0725 21.248 77.6005 21.824ZM91.9418 7.604H99.8978V11.384H94.2818L97.7018 16.46C99.2378 18.644 100.09 20.144 100.258 20.96C100.354 21.344 100.402 21.74 100.402 22.148C100.402 23.852 99.7658 25.136 98.4938 26H89.3138V22.22H95.9018L92.0498 16.568C91.8818 16.304 91.6178 15.932 91.2578 15.452C90.9218 14.972 90.6578 14.588 90.4658 14.3C90.2738 13.988 90.1418 13.76 90.0698 13.616C89.9978 13.472 89.9018 13.292 89.7817 13.076C89.6618 12.836 89.5778 12.632 89.5298 12.464C89.4338 12.008 89.3858 11.636 89.3858 11.348C89.3858 9.596 90.2378 8.348 91.9418 7.604ZM110.692 11.384H107.992C107.632 11.816 107.332 12.416 107.092 13.184C106.876 13.952 106.768 14.696 106.768 15.416H111.916C111.964 14.696 111.868 13.952 111.628 13.184C111.388 12.392 111.076 11.792 110.692 11.384ZM115.588 22.22V26H106.444C104.764 24.872 103.576 23.48 102.88 21.824C102.208 20.144 101.872 18.452 101.872 16.748C101.872 12.812 103.36 9.764 106.336 7.604H112.168C113.776 8.78 114.868 10.028 115.444 11.348C116.02 12.668 116.308 14 116.308 15.344C116.308 16.688 116.2 17.84 115.984 18.8H107.02C107.092 19.352 107.296 19.988 107.632 20.708C107.992 21.404 108.376 21.908 108.784 22.22H115.588ZM118.76 26V7.604H122.18L123.08 9.548C124.04 8.252 125.252 7.604 126.716 7.604H128.12V12.428H123.548V26H118.76Z" fill="white"/>
</svg>
