<svg width="190" height="32" viewBox="0 0 190 32" fill="none" xmlns="http://www.w3.org/2000/svg">
<path d="M0.18 15.56V12.068H12.204V15.56H0.18ZM4.428 19.988V7.604H7.884V19.988H4.428ZM24.831 26L24.075 22.004H18.387L17.631 26H12.735L17.595 0.799998H25.047L29.655 26H24.831ZM21.159 5.48L19.755 13.868L18.963 18.152H23.463L22.635 13.868L21.231 5.48H21.159ZM45.3277 26H41.6917L41.0437 24.704C40.5157 25.184 40.0117 25.52 39.5317 25.712C39.0757 25.904 38.3797 26 37.4437 26H34.3117C33.2557 24.992 32.4157 23.672 31.7917 22.04C31.1917 20.408 30.8917 18.584 30.8917 16.568C30.8917 14.528 31.1917 12.8 31.7917 11.384C32.4157 9.968 33.2917 8.708 34.4197 7.604H37.5157C38.7877 7.604 39.7957 7.94 40.5397 8.612V0.799998H45.3277V26ZM40.5397 11.384H37.0837C36.1957 12.896 35.7517 14.756 35.7517 16.964C35.7517 19.148 36.1837 20.9 37.0477 22.22H40.5397V11.384ZM62.3433 26H58.7073L58.0593 24.704C57.5313 25.184 57.0273 25.52 56.5473 25.712C56.0913 25.904 55.3953 26 54.4593 26H51.3273C50.2713 24.992 49.4313 23.672 48.8073 22.04C48.2073 20.408 47.9073 18.584 47.9073 16.568C47.9073 14.528 48.2073 12.8 48.8073 11.384C49.4313 9.968 50.3073 8.708 51.4353 7.604H54.5313C55.8033 7.604 56.8113 7.94 57.5553 8.612V0.799998H62.3433V26ZM57.5553 11.384H54.0993C53.2113 12.896 52.7673 14.756 52.7673 16.964C52.7673 19.148 53.1993 20.9 54.0633 22.22H57.5553V11.384ZM78.3565 21.824H84.6925V26H75.5485C73.9645 24.512 72.7645 22.628 71.9485 20.348C71.1325 18.068 70.7245 15.728 70.7245 13.328C70.7245 10.904 71.1805 8.576 72.0925 6.344C73.0045 4.112 74.3605 2.264 76.1605 0.799998H84.6925V5.12H78.3565C77.7085 5.864 77.1445 7.064 76.6645 8.72C76.2085 10.376 75.9805 11.96 75.9805 13.472C75.9805 14.984 76.2085 16.568 76.6645 18.224C77.1445 19.88 77.7085 21.08 78.3565 21.824ZM95.4779 17.684H91.6259C91.1219 18.308 90.8699 19.088 90.8699 20.024C90.8699 20.96 91.1339 21.692 91.6619 22.22H95.4779V17.684ZM87.7379 7.604H96.6659C98.1059 8.468 99.0539 9.464 99.5099 10.592C99.9659 11.696 100.194 13.208 100.194 15.128V20.528C100.194 22.52 100.242 24.344 100.338 26H96.2339L95.5859 24.704C94.6499 25.568 93.3299 26 91.6259 26H89.3579C87.3179 24.656 86.2979 22.724 86.2979 20.204C86.2979 17.66 87.3419 15.656 89.4299 14.192H92.8139C93.7499 14.192 94.6259 14.48 95.4419 15.056V13.256C95.4419 12.32 95.0339 11.696 94.2179 11.384H87.7379V7.604ZM103.808 17.972V11.384H101.324V7.604H103.808V2.6H108.596V7.604H111.548V11.384H108.596V19.124C108.596 20.588 108.848 21.62 109.352 22.22H111.548V26H106.436C105.164 24.824 104.396 23.552 104.132 22.184C103.916 21.032 103.808 19.628 103.808 17.972ZM121.907 11.384H119.207C118.847 11.816 118.547 12.416 118.307 13.184C118.091 13.952 117.983 14.696 117.983 15.416H123.131C123.179 14.696 123.083 13.952 122.843 13.184C122.603 12.392 122.291 11.792 121.907 11.384ZM126.803 22.22V26H117.659C115.979 24.872 114.791 23.48 114.095 21.824C113.423 20.144 113.087 18.452 113.087 16.748C113.087 12.812 114.575 9.764 117.551 7.604H123.383C124.991 8.78 126.083 10.028 126.659 11.348C127.235 12.668 127.523 14 127.523 15.344C127.523 16.688 127.415 17.84 127.199 18.8H118.235C118.307 19.352 118.511 19.988 118.847 20.708C119.207 21.404 119.591 21.908 119.999 22.22H126.803ZM143.871 7.604V24.092C143.871 25.916 143.631 27.38 143.151 28.484C142.695 29.588 141.771 30.56 140.379 31.4H132.171V27.656H138.327C138.927 27.296 139.227 26.72 139.227 25.928V23.804C138.339 24.548 136.923 24.92 134.979 24.92H132.351C130.407 22.592 129.435 19.892 129.435 16.82C129.435 14.612 129.747 12.812 130.371 11.42C130.995 10.004 131.907 8.732 133.107 7.604H135.771C137.331 7.604 138.567 8.108 139.479 9.116L140.127 7.604H143.871ZM139.083 11.384H135.591C134.727 12.872 134.295 14.588 134.295 16.532C134.295 18.452 134.667 20.036 135.411 21.284H139.083V11.384ZM157.758 26H149.91C147.51 23.768 146.31 20.72 146.31 16.856C146.31 14.912 146.574 13.22 147.102 11.78C147.654 10.34 148.518 8.948 149.694 7.604H158.118C159.366 9.044 160.218 10.448 160.674 11.816C161.13 13.16 161.358 14.84 161.358 16.856C161.358 20.72 160.158 23.768 157.758 26ZM152.466 22.22H155.202C156.066 20.54 156.498 18.632 156.498 16.496C156.498 14.36 156.054 12.656 155.166 11.384H152.466C151.602 12.608 151.17 14.348 151.17 16.604C151.17 18.836 151.602 20.708 152.466 22.22ZM163.971 26V7.604H167.391L168.291 9.548C169.251 8.252 170.463 7.604 171.927 7.604H173.331V12.428H168.759V26H163.971ZM175.288 15.884V7.604H180.076V15.92C180.076 18.008 180.496 19.748 181.336 21.14H183.46C184.252 19.772 184.648 18.032 184.648 15.92V7.604H189.436V15.632C189.436 17.432 189.196 19.016 188.716 20.384C188.26 21.752 187.504 23.3 186.448 25.028L184.036 28.952C183.604 29.696 183.148 30.248 182.668 30.608C182.188 30.968 181.564 31.232 180.796 31.4H175.108V27.62H178.996C179.5 27.476 179.92 27.224 180.256 26.864C180.592 26.504 180.94 25.988 181.3 25.316L181.516 24.92H179.032C177.88 23.984 176.968 22.724 176.296 21.14C175.624 19.532 175.288 17.78 175.288 15.884Z" fill="white"/>
</svg>
