<svg width="165" height="50" viewBox="0 0 165 50" fill="none" xmlns="http://www.w3.org/2000/svg">
<path d="M40.712 34.824H47.048V39H37.904C36.32 37.512 35.12 35.628 34.304 33.348C33.488 31.068 33.08 28.728 33.08 26.328C33.08 23.904 33.536 21.576 34.448 19.344C35.36 17.112 36.716 15.264 38.516 13.8H47.048V18.12H40.712C40.064 18.864 39.5 20.064 39.02 21.72C38.564 23.376 38.336 24.96 38.336 26.472C38.336 27.984 38.564 29.568 39.02 31.224C39.5 32.88 40.064 34.08 40.712 34.824ZM60.1014 39H52.2534C49.8534 36.768 48.6534 33.72 48.6534 29.856C48.6534 27.912 48.9174 26.22 49.4454 24.78C49.9974 23.34 50.8614 21.948 52.0374 20.604H60.4614C61.7094 22.044 62.5614 23.448 63.0174 24.816C63.4734 26.16 63.7014 27.84 63.7014 29.856C63.7014 33.72 62.5014 36.768 60.1014 39ZM54.8094 35.22H57.5454C58.4094 33.54 58.8414 31.632 58.8414 29.496C58.8414 27.36 58.3974 25.656 57.5094 24.384H54.8094C53.9454 25.608 53.5134 27.348 53.5134 29.604C53.5134 31.836 53.9454 33.708 54.8094 35.22ZM71.0305 13.8V39H66.2785V13.8H71.0305ZM78.8703 13.8V39H74.1183V13.8H78.8703ZM90.2742 24.384H87.5742C87.2142 24.816 86.9142 25.416 86.6742 26.184C86.4582 26.952 86.3502 27.696 86.3502 28.416H91.4982C91.5462 27.696 91.4502 26.952 91.2102 26.184C90.9702 25.392 90.6582 24.792 90.2742 24.384ZM95.1702 35.22V39H86.0262C84.3462 37.872 83.1582 36.48 82.4622 34.824C81.7902 33.144 81.4542 31.452 81.4542 29.748C81.4542 25.812 82.9422 22.764 85.9182 20.604H91.7502C93.3582 21.78 94.4502 23.028 95.0262 24.348C95.6022 25.668 95.8902 27 95.8902 28.344C95.8902 29.688 95.7822 30.84 95.5662 31.8H86.6022C86.6742 32.352 86.8782 32.988 87.2142 33.708C87.5742 34.404 87.9582 34.908 88.3662 35.22H95.1702ZM102.77 29.64C102.77 30.648 102.926 31.68 103.238 32.736C103.55 33.768 103.982 34.596 104.534 35.22H109.934V39H102.05C99.2178 36.744 97.8018 33.624 97.8018 29.64C97.8018 25.656 99.3138 22.644 102.338 20.604H109.934V24.384H104.534C103.358 25.608 102.77 27.36 102.77 29.64ZM113.413 30.972V24.384H110.929V20.604H113.413V15.6H118.201V20.604H121.153V24.384H118.201V32.124C118.201 33.588 118.453 34.62 118.957 35.22H121.153V39H116.041C114.769 37.824 114.001 36.552 113.737 35.184C113.521 34.032 113.413 32.628 113.413 30.972ZM123.548 39V20.604H128.3V39H123.548ZM123.548 13.8H128.3V18.66H123.548V13.8ZM142.332 39H134.484C132.084 36.768 130.884 33.72 130.884 29.856C130.884 27.912 131.148 26.22 131.676 24.78C132.228 23.34 133.092 21.948 134.268 20.604H142.692C143.94 22.044 144.792 23.448 145.248 24.816C145.704 26.16 145.932 27.84 145.932 29.856C145.932 33.72 144.732 36.768 142.332 39ZM137.04 35.22H139.776C140.64 33.54 141.072 31.632 141.072 29.496C141.072 27.36 140.628 25.656 139.74 24.384H137.04C136.176 25.608 135.744 27.348 135.744 29.604C135.744 31.836 136.176 33.708 137.04 35.22ZM156.501 20.604H160.317C161.373 21.948 162.093 23.292 162.477 24.636C162.861 25.98 163.053 27.66 163.053 29.676V39H158.265V29.316C158.265 27.036 157.953 25.392 157.329 24.384H153.297V39H148.509V20.604H152.253L152.901 21.9C153.429 21.42 153.921 21.084 154.377 20.892C154.857 20.7 155.565 20.604 156.501 20.604Z" fill="white"/>
<path d="M19 27.7143H10.8571V35H8.14286V27.7143H0V25.2857H8.14286V18H10.8571V25.2857H19V27.7143Z" fill="white"/>
</svg>
