<svg width="64" height="47" viewBox="0 0 64 47" fill="none" xmlns="http://www.w3.org/2000/svg">
<path d="M44.3333 40.6252V46.8752H0V40.6252C0 40.6252 0 28.1252 22.1667 28.1252C44.3333 28.1252 44.3333 40.6252 44.3333 40.6252ZM33.25 10.9377C33.25 8.77443 32.6 6.65978 31.3821 4.86112C30.1643 3.06245 28.4333 1.66057 26.4081 0.832732C24.3829 0.00489894 22.1544 -0.2117 20.0044 0.210326C17.8545 0.632352 15.8796 1.67405 14.3296 3.20368C12.7795 4.73332 11.7239 6.6822 11.2963 8.80386C10.8686 10.9255 11.0881 13.1247 11.927 15.1233C12.7659 17.1218 14.1865 18.83 16.0091 20.0319C17.8317 21.2337 19.9746 21.8752 22.1667 21.8752C25.1061 21.8752 27.9252 20.7228 30.0038 18.6716C32.0823 16.6205 33.25 13.8385 33.25 10.9377ZM44.1433 28.1252C46.09 29.6119 47.6829 31.5015 48.81 33.6611C49.937 35.8207 50.5708 38.1978 50.6667 40.6252V46.8752H63.3333V40.6252C63.3333 40.6252 63.3333 29.2814 44.1433 28.1252ZM41.1667 0.000164309C38.987 -0.0118129 36.8553 0.631276 35.055 1.84391C36.9786 4.49622 38.0128 7.67606 38.0128 10.9377C38.0128 14.1993 36.9786 17.3791 35.055 20.0314C36.8553 21.2441 38.987 21.8871 41.1667 21.8752C44.1061 21.8752 46.9252 20.7228 49.0038 18.6716C51.0823 16.6205 52.25 13.8385 52.25 10.9377C52.25 8.03686 51.0823 5.25486 49.0038 3.20368C46.9252 1.15251 44.1061 0.000164309 41.1667 0.000164309Z" fill="#F2613F"/>
</svg>
