<svg width="40" height="40" viewBox="0 0 40 40" fill="none" xmlns="http://www.w3.org/2000/svg">
<path fill-rule="evenodd" clip-rule="evenodd" d="M33.3333 6.66671H6.66666C6.22463 6.66671 5.80071 6.8423 5.48814 7.15486C5.17558 7.46742 4.99999 7.89135 4.99999 8.33337V31.6667C4.99999 32.1087 5.17558 32.5327 5.48814 32.8452C5.80071 33.1578 6.22463 33.3334 6.66666 33.3334H33.3333C33.7753 33.3334 34.1993 33.1578 34.5118 32.8452C34.8244 32.5327 35 32.1087 35 31.6667V8.33337C35 7.89135 34.8244 7.46742 34.5118 7.15486C34.1993 6.8423 33.7753 6.66671 33.3333 6.66671ZM6.66666 3.33337C5.34057 3.33337 4.0688 3.86016 3.13112 4.79784C2.19344 5.73552 1.66666 7.00729 1.66666 8.33337V31.6667C1.66666 32.9928 2.19344 34.2646 3.13112 35.2022C4.0688 36.1399 5.34057 36.6667 6.66666 36.6667H33.3333C34.6594 36.6667 35.9312 36.1399 36.8689 35.2022C37.8065 34.2646 38.3333 32.9928 38.3333 31.6667V8.33337C38.3333 7.00729 37.8065 5.73552 36.8689 4.79784C35.9312 3.86016 34.6594 3.33337 33.3333 3.33337H6.66666ZM9.99999 11.6667H13.3333V15H9.99999V11.6667ZM18.3333 11.6667C17.8913 11.6667 17.4674 11.8423 17.1548 12.1549C16.8423 12.4674 16.6667 12.8913 16.6667 13.3334C16.6667 13.7754 16.8423 14.1993 17.1548 14.5119C17.4674 14.8244 17.8913 15 18.3333 15H28.3333C28.7753 15 29.1993 14.8244 29.5118 14.5119C29.8244 14.1993 30 13.7754 30 13.3334C30 12.8913 29.8244 12.4674 29.5118 12.1549C29.1993 11.8423 28.7753 11.6667 28.3333 11.6667H18.3333ZM13.3333 18.3334H9.99999V21.6667H13.3333V18.3334ZM16.6667 20C16.6667 19.558 16.8423 19.1341 17.1548 18.8215C17.4674 18.509 17.8913 18.3334 18.3333 18.3334H28.3333C28.7753 18.3334 29.1993 18.509 29.5118 18.8215C29.8244 19.1341 30 19.558 30 20C30 20.4421 29.8244 20.866 29.5118 21.1786C29.1993 21.4911 28.7753 21.6667 28.3333 21.6667H18.3333C17.8913 21.6667 17.4674 21.4911 17.1548 21.1786C16.8423 20.866 16.6667 20.4421 16.6667 20ZM13.3333 25H9.99999V28.3334H13.3333V25ZM16.6667 26.6667C16.6667 26.2247 16.8423 25.8008 17.1548 25.4882C17.4674 25.1756 17.8913 25 18.3333 25H28.3333C28.7753 25 29.1993 25.1756 29.5118 25.4882C29.8244 25.8008 30 26.2247 30 26.6667C30 27.1087 29.8244 27.5327 29.5118 27.8452C29.1993 28.1578 28.7753 28.3334 28.3333 28.3334H18.3333C17.8913 28.3334 17.4674 28.1578 17.1548 27.8452C16.8423 27.5327 16.6667 27.1087 16.6667 26.6667Z" fill="#F2613F"/>
</svg>
