<svg width="162" height="38" viewBox="0 0 162 38" fill="none" xmlns="http://www.w3.org/2000/svg">
<path d="M6.848 1.848V10.088C6.848 11.0053 6.56533 11.7413 6 12.296C5.43467 12.84 4.688 13.112 3.76 13.112C2.82133 13.112 2.06933 12.8347 1.504 12.28C0.938667 11.7147 0.656 10.9467 0.656 9.976H2.112C2.12267 10.52 2.26133 10.9627 2.528 11.304C2.80533 11.6453 3.216 11.816 3.76 11.816C4.304 11.816 4.70933 11.656 4.976 11.336C5.24267 11.0053 5.376 10.5893 5.376 10.088V1.848H6.848ZM17.7164 8.28C17.7164 8.55733 17.7004 8.85067 17.6684 9.16H10.6604C10.7137 10.024 11.007 10.7013 11.5404 11.192C12.0844 11.672 12.7404 11.912 13.5084 11.912C14.1377 11.912 14.6604 11.768 15.0764 11.48C15.503 11.1813 15.8017 10.7867 15.9724 10.296H17.5404C17.3057 11.1387 16.8364 11.8267 16.1324 12.36C15.4284 12.8827 14.5537 13.144 13.5084 13.144C12.6764 13.144 11.9297 12.9573 11.2684 12.584C10.6177 12.2107 10.1057 11.6827 9.73238 11C9.35904 10.3067 9.17238 9.50667 9.17238 8.6C9.17238 7.69333 9.35371 6.89867 9.71638 6.216C10.079 5.53333 10.5857 5.01067 11.2364 4.648C11.8977 4.27467 12.655 4.088 13.5084 4.088C14.3404 4.088 15.0764 4.26933 15.7164 4.632C16.3564 4.99467 16.847 5.496 17.1884 6.136C17.5404 6.76533 17.7164 7.48 17.7164 8.28ZM16.2124 7.976C16.2124 7.42133 16.0897 6.94667 15.8444 6.552C15.599 6.14667 15.263 5.84267 14.8364 5.64C14.4204 5.42667 13.9564 5.32 13.4444 5.32C12.7084 5.32 12.079 5.55467 11.5564 6.024C11.0444 6.49333 10.751 7.144 10.6764 7.976H16.2124ZM21.0943 5.656C21.3503 5.15467 21.7129 4.76533 22.1823 4.488C22.6623 4.21067 23.2436 4.072 23.9263 4.072V5.576H23.5423C21.9103 5.576 21.0943 6.46133 21.0943 8.232V13H19.6383V4.232H21.0943V5.656ZM33.607 8.28C33.607 8.55733 33.591 8.85067 33.559 9.16H26.551C26.6043 10.024 26.8977 10.7013 27.431 11.192C27.975 11.672 28.631 11.912 29.399 11.912C30.0283 11.912 30.551 11.768 30.967 11.48C31.3937 11.1813 31.6923 10.7867 31.863 10.296H33.431C33.1963 11.1387 32.727 11.8267 32.023 12.36C31.319 12.8827 30.4443 13.144 29.399 13.144C28.567 13.144 27.8203 12.9573 27.159 12.584C26.5083 12.2107 25.9963 11.6827 25.623 11C25.2497 10.3067 25.063 9.50667 25.063 8.6C25.063 7.69333 25.2443 6.89867 25.607 6.216C25.9697 5.53333 26.4763 5.01067 27.127 4.648C27.7883 4.27467 28.5457 4.088 29.399 4.088C30.231 4.088 30.967 4.26933 31.607 4.632C32.247 4.99467 32.7377 5.496 33.079 6.136C33.431 6.76533 33.607 7.48 33.607 8.28ZM32.103 7.976C32.103 7.42133 31.9803 6.94667 31.735 6.552C31.4897 6.14667 31.1537 5.84267 30.727 5.64C30.311 5.42667 29.847 5.32 29.335 5.32C28.599 5.32 27.9697 5.55467 27.447 6.024C26.935 6.49333 26.6417 7.144 26.567 7.976H32.103ZM46.0729 4.072C46.7555 4.072 47.3635 4.216 47.8969 4.504C48.4302 4.78133 48.8515 5.20267 49.1609 5.768C49.4702 6.33333 49.6249 7.02133 49.6249 7.832V13H48.1849V8.04C48.1849 7.16533 47.9662 6.49867 47.5289 6.04C47.1022 5.57067 46.5209 5.336 45.7849 5.336C45.0275 5.336 44.4249 5.58133 43.9769 6.072C43.5289 6.552 43.3049 7.25067 43.3049 8.168V13H41.8649V8.04C41.8649 7.16533 41.6462 6.49867 41.2089 6.04C40.7822 5.57067 40.2009 5.336 39.4649 5.336C38.7075 5.336 38.1049 5.58133 37.6569 6.072C37.2089 6.552 36.9849 7.25067 36.9849 8.168V13H35.5289V4.232H36.9849V5.496C37.2729 5.03733 37.6569 4.68533 38.1369 4.44C38.6275 4.19467 39.1662 4.072 39.7529 4.072C40.4889 4.072 41.1395 4.23733 41.7049 4.568C42.2702 4.89867 42.6915 5.384 42.9689 6.024C43.2142 5.40533 43.6195 4.92533 44.1849 4.584C44.7502 4.24267 45.3795 4.072 46.0729 4.072ZM52.7653 2.808C52.4879 2.808 52.2533 2.712 52.0613 2.52C51.8693 2.328 51.7733 2.09333 51.7733 1.816C51.7733 1.53867 51.8693 1.304 52.0613 1.112C52.2533 0.919999 52.4879 0.823999 52.7653 0.823999C53.0319 0.823999 53.2559 0.919999 53.4373 1.112C53.6293 1.304 53.7253 1.53867 53.7253 1.816C53.7253 2.09333 53.6293 2.328 53.4373 2.52C53.2559 2.712 53.0319 2.808 52.7653 2.808ZM53.4693 4.232V13H52.0133V4.232H53.4693ZM55.4068 8.584C55.4068 7.688 55.5881 6.904 55.9508 6.232C56.3134 5.54933 56.8094 5.02133 57.4388 4.648C58.0788 4.27467 58.7881 4.088 59.5668 4.088C60.3348 4.088 61.0014 4.25333 61.5668 4.584C62.1321 4.91467 62.5534 5.33067 62.8308 5.832V4.232H64.3028V13H62.8308V11.368C62.5428 11.88 62.1108 12.3067 61.5348 12.648C60.9694 12.9787 60.3081 13.144 59.5508 13.144C58.7721 13.144 58.0681 12.952 57.4388 12.568C56.8094 12.184 56.3134 11.6453 55.9508 10.952C55.5881 10.2587 55.4068 9.46933 55.4068 8.584ZM62.8308 8.6C62.8308 7.93867 62.6974 7.36267 62.4308 6.872C62.1641 6.38133 61.8014 6.008 61.3428 5.752C60.8948 5.48533 60.3988 5.352 59.8548 5.352C59.3108 5.352 58.8148 5.48 58.3668 5.736C57.9188 5.992 57.5614 6.36533 57.2948 6.856C57.0281 7.34667 56.8948 7.92267 56.8948 8.584C56.8948 9.256 57.0281 9.84267 57.2948 10.344C57.5614 10.8347 57.9188 11.2133 58.3668 11.48C58.8148 11.736 59.3108 11.864 59.8548 11.864C60.3988 11.864 60.8948 11.736 61.3428 11.48C61.8014 11.2133 62.1641 10.8347 62.4308 10.344C62.6974 9.84267 62.8308 9.26133 62.8308 8.6ZM69.8673 13.144C69.1953 13.144 68.5926 13.032 68.0593 12.808C67.5259 12.5733 67.1046 12.2533 66.7953 11.848C66.4859 11.432 66.3153 10.9573 66.2833 10.424H67.7873C67.8299 10.8613 68.0326 11.2187 68.3953 11.496C68.7686 11.7733 69.2539 11.912 69.8513 11.912C70.4059 11.912 70.8433 11.7893 71.1633 11.544C71.4833 11.2987 71.6433 10.9893 71.6433 10.616C71.6433 10.232 71.4726 9.94933 71.1313 9.768C70.7899 9.576 70.2619 9.38933 69.5473 9.208C68.8966 9.03733 68.3633 8.86667 67.9473 8.696C67.5419 8.51467 67.1899 8.25333 66.8913 7.912C66.6033 7.56 66.4593 7.10133 66.4593 6.536C66.4593 6.088 66.5926 5.67733 66.8593 5.304C67.1259 4.93067 67.5046 4.63733 67.9953 4.424C68.4859 4.2 69.0459 4.088 69.6753 4.088C70.6459 4.088 71.4299 4.33333 72.0273 4.824C72.6246 5.31467 72.9446 5.98667 72.9873 6.84H71.5313C71.4993 6.38133 71.3126 6.01333 70.9713 5.736C70.6406 5.45867 70.1926 5.32 69.6273 5.32C69.1046 5.32 68.6886 5.432 68.3793 5.656C68.0699 5.88 67.9153 6.17333 67.9153 6.536C67.9153 6.824 68.0059 7.064 68.1873 7.256C68.3793 7.43733 68.6139 7.58667 68.8913 7.704C69.1793 7.81067 69.5739 7.93333 70.0753 8.072C70.7046 8.24267 71.2166 8.41333 71.6113 8.584C72.0059 8.744 72.3419 8.98933 72.6193 9.32C72.9073 9.65067 73.0566 10.0827 73.0673 10.616C73.0673 11.096 72.9339 11.528 72.6673 11.912C72.4006 12.296 72.0219 12.6 71.5313 12.824C71.0513 13.0373 70.4966 13.144 69.8673 13.144ZM82.9243 13.112C82.1883 13.112 81.5269 12.984 80.9403 12.728C80.3643 12.4613 79.9109 12.0987 79.5803 11.64C79.2496 11.1707 79.0789 10.632 79.0683 10.024H80.6203C80.6736 10.5467 80.8869 10.9893 81.2603 11.352C81.6443 11.704 82.1989 11.88 82.9243 11.88C83.6176 11.88 84.1616 11.7093 84.5563 11.368C84.9616 11.016 85.1643 10.568 85.1643 10.024C85.1643 9.59733 85.0469 9.25067 84.8123 8.984C84.5776 8.71733 84.2843 8.51467 83.9323 8.376C83.5803 8.23733 83.1056 8.088 82.5083 7.928C81.7723 7.736 81.1803 7.544 80.7323 7.352C80.2949 7.16 79.9163 6.86133 79.5963 6.456C79.2869 6.04 79.1323 5.48533 79.1323 4.792C79.1323 4.184 79.2869 3.64533 79.5963 3.176C79.9056 2.70667 80.3376 2.344 80.8923 2.088C81.4576 1.832 82.1029 1.704 82.8283 1.704C83.8736 1.704 84.7269 1.96533 85.3883 2.488C86.0603 3.01067 86.4389 3.704 86.5243 4.568H84.9243C84.8709 4.14133 84.6469 3.768 84.2523 3.448C83.8576 3.11733 83.3349 2.952 82.6843 2.952C82.0763 2.952 81.5803 3.112 81.1963 3.432C80.8123 3.74133 80.6203 4.17867 80.6203 4.744C80.6203 5.14933 80.7323 5.48 80.9563 5.736C81.1909 5.992 81.4736 6.18933 81.8043 6.328C82.1456 6.456 82.6203 6.60533 83.2283 6.776C83.9643 6.97867 84.5563 7.18133 85.0043 7.384C85.4523 7.576 85.8363 7.88 86.1562 8.296C86.4763 8.70133 86.6363 9.256 86.6363 9.96C86.6363 10.504 86.4923 11.016 86.2043 11.496C85.9163 11.976 85.4896 12.3653 84.9243 12.664C84.3589 12.9627 83.6923 13.112 82.9243 13.112ZM90.2349 5.848C90.5229 5.34667 90.9495 4.93067 91.5149 4.6C92.0909 4.25867 92.7575 4.088 93.5149 4.088C94.2935 4.088 94.9975 4.27467 95.6269 4.648C96.2669 5.02133 96.7682 5.54933 97.1309 6.232C97.4935 6.904 97.6749 7.688 97.6749 8.584C97.6749 9.46933 97.4935 10.2587 97.1309 10.952C96.7682 11.6453 96.2669 12.184 95.6269 12.568C94.9975 12.952 94.2935 13.144 93.5149 13.144C92.7682 13.144 92.1069 12.9787 91.5309 12.648C90.9655 12.3067 90.5335 11.8853 90.2349 11.384V17.16H88.7789V4.232H90.2349V5.848ZM96.1869 8.584C96.1869 7.92267 96.0535 7.34667 95.7869 6.856C95.5202 6.36533 95.1575 5.992 94.6989 5.736C94.2509 5.48 93.7549 5.352 93.2109 5.352C92.6775 5.352 92.1815 5.48533 91.7229 5.752C91.2749 6.008 90.9122 6.38667 90.6349 6.888C90.3682 7.37867 90.2349 7.94933 90.2349 8.6C90.2349 9.26133 90.3682 9.84267 90.6349 10.344C90.9122 10.8347 91.2749 11.2133 91.7229 11.48C92.1815 11.736 92.6775 11.864 93.2109 11.864C93.7549 11.864 94.2509 11.736 94.6989 11.48C95.1575 11.2133 95.5202 10.8347 95.7869 10.344C96.0535 9.84267 96.1869 9.256 96.1869 8.584ZM101.047 5.656C101.303 5.15467 101.666 4.76533 102.135 4.488C102.615 4.21067 103.197 4.072 103.879 4.072V5.576H103.495C101.863 5.576 101.047 6.46133 101.047 8.232V13H99.5914V4.232H101.047V5.656ZM106.312 2.808C106.035 2.808 105.8 2.712 105.608 2.52C105.416 2.328 105.32 2.09333 105.32 1.816C105.32 1.53867 105.416 1.304 105.608 1.112C105.8 0.919999 106.035 0.823999 106.312 0.823999C106.579 0.823999 106.803 0.919999 106.984 1.112C107.176 1.304 107.272 1.53867 107.272 1.816C107.272 2.09333 107.176 2.328 106.984 2.52C106.803 2.712 106.579 2.808 106.312 2.808ZM107.016 4.232V13H105.56V4.232H107.016ZM113.77 4.072C114.836 4.072 115.7 4.39733 116.362 5.048C117.023 5.688 117.354 6.616 117.354 7.832V13H115.914V8.04C115.914 7.16533 115.695 6.49867 115.258 6.04C114.82 5.57067 114.223 5.336 113.466 5.336C112.698 5.336 112.084 5.576 111.626 6.056C111.178 6.536 110.954 7.23467 110.954 8.152V13H109.498V4.232H110.954V5.48C111.242 5.032 111.631 4.68533 112.122 4.44C112.623 4.19467 113.172 4.072 113.77 4.072ZM123.348 4.088C124.105 4.088 124.767 4.25333 125.332 4.584C125.908 4.91467 126.335 5.33067 126.612 5.832V4.232H128.084V13.192C128.084 13.992 127.913 14.7013 127.572 15.32C127.231 15.9493 126.74 16.44 126.1 16.792C125.471 17.144 124.735 17.32 123.892 17.32C122.74 17.32 121.78 17.048 121.012 16.504C120.244 15.96 119.791 15.2187 119.652 14.28H121.092C121.252 14.8133 121.583 15.24 122.084 15.56C122.585 15.8907 123.188 16.056 123.892 16.056C124.692 16.056 125.343 15.8053 125.844 15.304C126.356 14.8027 126.612 14.0987 126.612 13.192V11.352C126.324 11.864 125.897 12.2907 125.332 12.632C124.767 12.9733 124.105 13.144 123.348 13.144C122.569 13.144 121.86 12.952 121.22 12.568C120.591 12.184 120.095 11.6453 119.732 10.952C119.369 10.2587 119.188 9.46933 119.188 8.584C119.188 7.688 119.369 6.904 119.732 6.232C120.095 5.54933 120.591 5.02133 121.22 4.648C121.86 4.27467 122.569 4.088 123.348 4.088ZM126.612 8.6C126.612 7.93867 126.479 7.36267 126.212 6.872C125.945 6.38133 125.583 6.008 125.124 5.752C124.676 5.48533 124.18 5.352 123.636 5.352C123.092 5.352 122.596 5.48 122.148 5.736C121.7 5.992 121.343 6.36533 121.076 6.856C120.809 7.34667 120.676 7.92267 120.676 8.584C120.676 9.256 120.809 9.84267 121.076 10.344C121.343 10.8347 121.7 11.2133 122.148 11.48C122.596 11.736 123.092 11.864 123.636 11.864C124.18 11.864 124.676 11.736 125.124 11.48C125.583 11.2133 125.945 10.8347 126.212 10.344C126.479 9.84267 126.612 9.26133 126.612 8.6ZM134.113 5.432H132.273V13H130.817V5.432H129.681V4.232H130.817V3.608C130.817 2.62667 131.067 1.912 131.569 1.464C132.081 1.00533 132.897 0.775999 134.016 0.775999V1.992C133.377 1.992 132.923 2.12 132.657 2.376C132.401 2.62133 132.273 3.032 132.273 3.608V4.232H134.113V5.432ZM136.562 2.808C136.285 2.808 136.05 2.712 135.858 2.52C135.666 2.328 135.57 2.09333 135.57 1.816C135.57 1.53867 135.666 1.304 135.858 1.112C136.05 0.919999 136.285 0.823999 136.562 0.823999C136.829 0.823999 137.053 0.919999 137.234 1.112C137.426 1.304 137.522 1.53867 137.522 1.816C137.522 2.09333 137.426 2.328 137.234 2.52C137.053 2.712 136.829 2.808 136.562 2.808ZM137.266 4.232V13H135.81V4.232H137.266ZM147.748 8.28C147.748 8.55733 147.732 8.85067 147.7 9.16H140.692C140.745 10.024 141.038 10.7013 141.572 11.192C142.116 11.672 142.772 11.912 143.54 11.912C144.169 11.912 144.692 11.768 145.108 11.48C145.534 11.1813 145.833 10.7867 146.004 10.296H147.572C147.337 11.1387 146.868 11.8267 146.164 12.36C145.46 12.8827 144.585 13.144 143.54 13.144C142.708 13.144 141.961 12.9573 141.3 12.584C140.649 12.2107 140.137 11.6827 139.764 11C139.39 10.3067 139.204 9.50667 139.204 8.6C139.204 7.69333 139.385 6.89867 139.748 6.216C140.11 5.53333 140.617 5.01067 141.268 4.648C141.929 4.27467 142.686 4.088 143.54 4.088C144.372 4.088 145.108 4.26933 145.748 4.632C146.388 4.99467 146.878 5.496 147.22 6.136C147.572 6.76533 147.748 7.48 147.748 8.28ZM146.244 7.976C146.244 7.42133 146.121 6.94667 145.876 6.552C145.63 6.14667 145.294 5.84267 144.868 5.64C144.452 5.42667 143.988 5.32 143.476 5.32C142.74 5.32 142.11 5.55467 141.588 6.024C141.076 6.49333 140.782 7.144 140.708 7.976H146.244ZM151.126 1.16V13H149.67V1.16H151.126ZM153.063 8.584C153.063 7.688 153.244 6.904 153.607 6.232C153.97 5.54933 154.466 5.02133 155.095 4.648C155.735 4.27467 156.45 4.088 157.239 4.088C157.922 4.088 158.556 4.248 159.143 4.568C159.73 4.87733 160.178 5.288 160.487 5.8V1.16H161.959V13H160.487V11.352C160.199 11.8747 159.772 12.3067 159.207 12.648C158.642 12.9787 157.98 13.144 157.223 13.144C156.444 13.144 155.735 12.952 155.095 12.568C154.466 12.184 153.97 11.6453 153.607 10.952C153.244 10.2587 153.063 9.46933 153.063 8.584ZM160.487 8.6C160.487 7.93867 160.354 7.36267 160.087 6.872C159.82 6.38133 159.458 6.008 158.999 5.752C158.551 5.48533 158.055 5.352 157.511 5.352C156.967 5.352 156.471 5.48 156.023 5.736C155.575 5.992 155.218 6.36533 154.951 6.856C154.684 7.34667 154.551 7.92267 154.551 8.584C154.551 9.256 154.684 9.84267 154.951 10.344C155.218 10.8347 155.575 11.2133 156.023 11.48C156.471 11.736 156.967 11.864 157.511 11.864C158.055 11.864 158.551 11.736 158.999 11.48C159.458 11.2133 159.82 10.8347 160.087 10.344C160.354 9.84267 160.487 9.26133 160.487 8.6ZM7.824 34.52H2.96L2.064 37H0.528L4.56 25.912H6.24L10.256 37H8.72L7.824 34.52ZM7.408 33.336L5.392 27.704L3.376 33.336H7.408ZM11.4693 32.584C11.4693 31.688 11.6506 30.904 12.0133 30.232C12.3759 29.5493 12.8719 29.0213 13.5013 28.648C14.1413 28.2747 14.8559 28.088 15.6453 28.088C16.3279 28.088 16.9626 28.248 17.5493 28.568C18.1359 28.8773 18.5839 29.288 18.8933 29.8V25.16H20.3653V37H18.8933V35.352C18.6053 35.8747 18.1786 36.3067 17.6133 36.648C17.0479 36.9787 16.3866 37.144 15.6293 37.144C14.8506 37.144 14.1413 36.952 13.5013 36.568C12.8719 36.184 12.3759 35.6453 12.0133 34.952C11.6506 34.2587 11.4693 33.4693 11.4693 32.584ZM18.8933 32.6C18.8933 31.9387 18.7599 31.3627 18.4933 30.872C18.2266 30.3813 17.8639 30.008 17.4053 29.752C16.9573 29.4853 16.4613 29.352 15.9173 29.352C15.3733 29.352 14.8773 29.48 14.4293 29.736C13.9813 29.992 13.6239 30.3653 13.3573 30.856C13.0906 31.3467 12.9573 31.9227 12.9573 32.584C12.9573 33.256 13.0906 33.8427 13.3573 34.344C13.6239 34.8347 13.9813 35.2133 14.4293 35.48C14.8773 35.736 15.3733 35.864 15.9173 35.864C16.4613 35.864 16.9573 35.736 17.4053 35.48C17.8639 35.2133 18.2266 34.8347 18.4933 34.344C18.7599 33.8427 18.8933 33.2613 18.8933 32.6ZM33.3698 28.072C34.0524 28.072 34.6604 28.216 35.1938 28.504C35.7271 28.7813 36.1484 29.2027 36.4578 29.768C36.7671 30.3333 36.9218 31.0213 36.9218 31.832V37H35.4818V32.04C35.4818 31.1653 35.2631 30.4987 34.8258 30.04C34.3991 29.5707 33.8178 29.336 33.0818 29.336C32.3244 29.336 31.7218 29.5813 31.2738 30.072C30.8258 30.552 30.6018 31.2507 30.6018 32.168V37H29.1618V32.04C29.1618 31.1653 28.9431 30.4987 28.5058 30.04C28.0791 29.5707 27.4978 29.336 26.7618 29.336C26.0044 29.336 25.4018 29.5813 24.9538 30.072C24.5058 30.552 24.2818 31.2507 24.2818 32.168V37H22.8258V28.232H24.2818V29.496C24.5698 29.0373 24.9538 28.6853 25.4338 28.44C25.9244 28.1947 26.4631 28.072 27.0498 28.072C27.7858 28.072 28.4364 28.2373 29.0018 28.568C29.5671 28.8987 29.9884 29.384 30.2658 30.024C30.5111 29.4053 30.9164 28.9253 31.4818 28.584C32.0471 28.2427 32.6764 28.072 33.3698 28.072ZM40.0621 26.808C39.7848 26.808 39.5501 26.712 39.3581 26.52C39.1661 26.328 39.0701 26.0933 39.0701 25.816C39.0701 25.5387 39.1661 25.304 39.3581 25.112C39.5501 24.92 39.7848 24.824 40.0621 24.824C40.3288 24.824 40.5528 24.92 40.7341 25.112C40.9261 25.304 41.0221 25.5387 41.0221 25.816C41.0221 26.0933 40.9261 26.328 40.7341 26.52C40.5528 26.712 40.3288 26.808 40.0621 26.808ZM40.7661 28.232V37H39.3101V28.232H40.7661ZM47.5196 28.072C48.5863 28.072 49.4503 28.3973 50.1116 29.048C50.773 29.688 51.1036 30.616 51.1036 31.832V37H49.6636V32.04C49.6636 31.1653 49.445 30.4987 49.0076 30.04C48.5703 29.5707 47.973 29.336 47.2156 29.336C46.4476 29.336 45.8343 29.576 45.3756 30.056C44.9276 30.536 44.7036 31.2347 44.7036 32.152V37H43.2476V28.232H44.7036V29.48C44.9916 29.032 45.381 28.6853 45.8716 28.44C46.373 28.1947 46.9223 28.072 47.5196 28.072Z" fill="white"/>
</svg>
