<svg width="302" height="62" viewBox="0 0 302 62" fill="none" xmlns="http://www.w3.org/2000/svg">
<rect x="1" y="1" width="300" height="60" rx="30" fill="#F2613F" stroke="white"/>
<path d="M114.016 47V17.6H119.77V42.128H128.506V47H114.016ZM143.924 47H134.768C131.968 44.396 130.568 40.84 130.568 36.332C130.568 34.064 130.876 32.09 131.492 30.41C132.136 28.73 133.144 27.106 134.516 25.538H144.344C145.8 27.218 146.794 28.856 147.326 30.452C147.858 32.02 148.124 33.98 148.124 36.332C148.124 40.84 146.724 44.396 143.924 47ZM137.75 42.59H140.942C141.95 40.63 142.454 38.404 142.454 35.912C142.454 33.42 141.936 31.432 140.9 29.948H137.75C136.742 31.376 136.238 33.406 136.238 36.038C136.238 38.642 136.742 40.826 137.75 42.59ZM167.384 25.538V44.774C167.384 46.902 167.104 48.61 166.544 49.898C166.012 51.186 164.934 52.32 163.31 53.3H153.734V48.932H160.916C161.616 48.512 161.966 47.84 161.966 46.916V44.438C160.93 45.306 159.278 45.74 157.01 45.74H153.944C151.676 43.024 150.542 39.874 150.542 36.29C150.542 33.714 150.906 31.614 151.634 29.99C152.362 28.338 153.426 26.854 154.826 25.538H157.934C159.754 25.538 161.196 26.126 162.26 27.302L163.016 25.538H167.384ZM161.798 29.948H157.724C156.716 31.684 156.212 33.686 156.212 35.954C156.212 38.194 156.646 40.042 157.514 41.498H161.798V29.948ZM170.818 47V25.538H176.362V47H170.818ZM170.818 17.6H176.362V23.27H170.818V17.6ZM189.288 25.538H193.74C194.972 27.106 195.812 28.674 196.26 30.242C196.708 31.81 196.932 33.77 196.932 36.122V47H191.346V35.702C191.346 33.042 190.982 31.124 190.254 29.948H185.55V47H179.964V25.538H184.332L185.088 27.05C185.704 26.49 186.278 26.098 186.81 25.874C187.37 25.65 188.196 25.538 189.288 25.538Z" fill="white"/>
<path d="M114.016 47H113.516V47.5H114.016V47ZM114.016 17.6V17.1H113.516V17.6H114.016ZM119.77 17.6H120.27V17.1H119.77V17.6ZM119.77 42.128H119.27V42.628H119.77V42.128ZM128.506 42.128H129.006V41.628H128.506V42.128ZM128.506 47V47.5H129.006V47H128.506ZM114.516 47V17.6H113.516V47H114.516ZM114.016 18.1H119.77V17.1H114.016V18.1ZM119.27 17.6V42.128H120.27V17.6H119.27ZM119.77 42.628H128.506V41.628H119.77V42.628ZM128.006 42.128V47H129.006V42.128H128.006ZM128.506 46.5H114.016V47.5H128.506V46.5ZM143.924 47V47.5H144.12L144.264 47.3661L143.924 47ZM134.768 47L134.427 47.3661L134.571 47.5H134.768V47ZM131.492 30.41L131.025 30.231L131.022 30.2379L131.492 30.41ZM134.516 25.538V25.038H134.289L134.139 25.2087L134.516 25.538ZM144.344 25.538L144.721 25.2105L144.572 25.038H144.344V25.538ZM147.326 30.452L146.851 30.6101L146.852 30.6126L147.326 30.452ZM137.75 42.59L137.315 42.8381L137.459 43.09H137.75V42.59ZM140.942 42.59V43.09H141.247L141.386 42.8187L140.942 42.59ZM140.9 29.948L141.31 29.6618L141.16 29.448H140.9V29.948ZM137.75 29.948V29.448H137.491L137.341 29.6597L137.75 29.948ZM143.924 46.5H134.768V47.5H143.924V46.5ZM135.108 46.6339C132.428 44.1414 131.068 40.7282 131.068 36.332H130.068C130.068 40.9518 131.507 44.6506 134.427 47.3661L135.108 46.6339ZM131.068 36.332C131.068 34.1077 131.37 32.1945 131.961 30.5821L131.022 30.2379C130.381 31.9855 130.068 34.0203 130.068 36.332H131.068ZM131.958 30.589C132.578 28.972 133.553 27.3978 134.892 25.8673L134.139 25.2087C132.735 26.8142 131.693 28.488 131.025 30.231L131.958 30.589ZM134.516 26.038H144.344V25.038H134.516V26.038ZM143.966 25.8655C145.392 27.511 146.346 29.0929 146.851 30.6101L147.8 30.2939C147.242 28.6191 146.207 26.925 144.721 25.2105L143.966 25.8655ZM146.852 30.6126C147.361 32.1122 147.624 34.0136 147.624 36.332H148.624C148.624 33.9464 148.354 31.9278 147.799 30.2914L146.852 30.6126ZM147.624 36.332C147.624 40.7282 146.263 44.1414 143.583 46.6339L144.264 47.3661C147.184 44.6506 148.624 40.9518 148.624 36.332H147.624ZM137.75 43.09H140.942V42.09H137.75V43.09ZM141.386 42.8187C142.435 40.7792 142.954 38.473 142.954 35.912H141.954C141.954 38.3349 141.464 40.4808 140.497 42.3613L141.386 42.8187ZM142.954 35.912C142.954 33.3552 142.423 31.256 141.31 29.6618L140.49 30.2342C141.449 31.608 141.954 33.4848 141.954 35.912H142.954ZM140.9 29.448H137.75V30.448H140.9V29.448ZM137.341 29.6597C136.25 31.2049 135.738 33.352 135.738 36.038H136.738C136.738 33.46 137.233 31.5471 138.158 30.2363L137.341 29.6597ZM135.738 36.038C135.738 38.705 136.254 40.9801 137.315 42.8381L138.184 42.3419C137.229 40.6719 136.738 38.579 136.738 36.038H135.738ZM167.384 25.538H167.884V25.038H167.384V25.538ZM166.544 49.898L166.086 49.6986L166.082 49.7071L166.544 49.898ZM163.31 53.3V53.8H163.449L163.569 53.7281L163.31 53.3ZM153.734 53.3H153.234V53.8H153.734V53.3ZM153.734 48.932V48.432H153.234V48.932H153.734ZM160.916 48.932V49.432H161.055L161.173 49.3607L160.916 48.932ZM161.966 44.438H162.466V43.3668L161.645 44.0547L161.966 44.438ZM153.944 45.74L153.56 46.0605L153.71 46.24H153.944V45.74ZM151.634 29.99L152.09 30.1945L152.092 30.1916L151.634 29.99ZM154.826 25.538V25.038H154.628L154.484 25.1737L154.826 25.538ZM162.26 27.302L161.889 27.6375L162.413 28.2157L162.72 27.499L162.26 27.302ZM163.016 25.538V25.038H162.687L162.557 25.341L163.016 25.538ZM161.798 29.948H162.298V29.448H161.798V29.948ZM157.724 29.948V29.448H157.436L157.292 29.6969L157.724 29.948ZM157.514 41.498L157.085 41.754L157.23 41.998H157.514V41.498ZM161.798 41.498V41.998H162.298V41.498H161.798ZM166.884 25.538V44.774H167.884V25.538H166.884ZM166.884 44.774C166.884 46.8654 166.608 48.4974 166.086 49.6986L167.003 50.0974C167.6 48.7226 167.884 46.9386 167.884 44.774H166.884ZM166.082 49.7071C165.603 50.8662 164.617 51.9275 163.052 52.8719L163.569 53.7281C165.252 52.7125 166.421 51.5058 167.006 50.0889L166.082 49.7071ZM163.31 52.8H153.734V53.8H163.31V52.8ZM154.234 53.3V48.932H153.234V53.3H154.234ZM153.734 49.432H160.916V48.432H153.734V49.432ZM161.173 49.3607C162.046 48.837 162.466 47.988 162.466 46.916H161.466C161.466 47.692 161.186 48.187 160.659 48.5033L161.173 49.3607ZM162.466 46.916V44.438H161.466V46.916H162.466ZM161.645 44.0547C160.743 44.8108 159.234 45.24 157.01 45.24V46.24C159.322 46.24 161.118 45.8012 162.287 44.8213L161.645 44.0547ZM157.01 45.24H153.944V46.24H157.01V45.24ZM154.328 45.4195C152.136 42.7947 151.042 39.7585 151.042 36.29H150.042C150.042 39.9895 151.216 43.2533 153.56 46.0605L154.328 45.4195ZM151.042 36.29C151.042 33.7554 151.401 31.7321 152.09 30.1945L151.178 29.7855C150.411 31.4959 150.042 33.6726 150.042 36.29H151.042ZM152.092 30.1916C152.791 28.6049 153.814 27.1754 155.169 25.9023L154.484 25.1737C153.038 26.5326 151.933 28.0711 151.177 29.7884L152.092 30.1916ZM154.826 26.038H157.934V25.038H154.826V26.038ZM157.934 26.038C159.636 26.038 160.935 26.5821 161.889 27.6375L162.631 26.9665C161.458 25.6698 159.873 25.038 157.934 25.038V26.038ZM162.72 27.499L163.476 25.735L162.557 25.341L161.801 27.105L162.72 27.499ZM163.016 26.038H167.384V25.038H163.016V26.038ZM161.798 29.448H157.724V30.448H161.798V29.448ZM157.292 29.6969C156.234 31.5187 155.712 33.6095 155.712 35.954H156.712C156.712 33.7625 157.198 31.8493 158.157 30.1991L157.292 29.6969ZM155.712 35.954C155.712 38.256 156.158 40.1995 157.085 41.754L157.944 41.242C157.134 39.8845 156.712 38.132 156.712 35.954H155.712ZM157.514 41.998H161.798V40.998H157.514V41.998ZM162.298 41.498V29.948H161.298V41.498H162.298ZM170.818 47H170.318V47.5H170.818V47ZM170.818 25.538V25.038H170.318V25.538H170.818ZM176.362 25.538H176.862V25.038H176.362V25.538ZM176.362 47V47.5H176.862V47H176.362ZM170.818 17.6V17.1H170.318V17.6H170.818ZM176.362 17.6H176.862V17.1H176.362V17.6ZM176.362 23.27V23.77H176.862V23.27H176.362ZM170.818 23.27H170.318V23.77H170.818V23.27ZM171.318 47V25.538H170.318V47H171.318ZM170.818 26.038H176.362V25.038H170.818V26.038ZM175.862 25.538V47H176.862V25.538H175.862ZM176.362 46.5H170.818V47.5H176.362V46.5ZM170.818 18.1H176.362V17.1H170.818V18.1ZM175.862 17.6V23.27H176.862V17.6H175.862ZM176.362 22.77H170.818V23.77H176.362V22.77ZM171.318 23.27V17.6H170.318V23.27H171.318ZM193.74 25.538L194.133 25.2291L193.983 25.038H193.74V25.538ZM196.932 47V47.5H197.432V47H196.932ZM191.346 47H190.846V47.5H191.346V47ZM190.254 29.948L190.679 29.6848L190.533 29.448H190.254V29.948ZM185.55 29.948V29.448H185.05V29.948H185.55ZM185.55 47V47.5H186.05V47H185.55ZM179.964 47H179.464V47.5H179.964V47ZM179.964 25.538V25.038H179.464V25.538H179.964ZM184.332 25.538L184.779 25.3144L184.641 25.038H184.332V25.538ZM185.088 27.05L184.641 27.2736L184.936 27.8639L185.425 27.42L185.088 27.05ZM186.81 25.874L186.624 25.4097L186.616 25.4132L186.81 25.874ZM189.288 26.038H193.74V25.038H189.288V26.038ZM193.347 25.8469C194.548 27.375 195.353 28.8859 195.779 30.3794L196.741 30.1046C196.272 28.4621 195.397 26.837 194.133 25.2291L193.347 25.8469ZM195.779 30.3794C196.21 31.8878 196.432 33.7978 196.432 36.122H197.432C197.432 33.7422 197.206 31.7322 196.741 30.1046L195.779 30.3794ZM196.432 36.122V47H197.432V36.122H196.432ZM196.932 46.5H191.346V47.5H196.932V46.5ZM191.846 47V35.702H190.846V47H191.846ZM191.846 35.702C191.846 33.0208 191.484 30.9843 190.679 29.6848L189.829 30.2112C190.481 31.2637 190.846 33.0632 190.846 35.702H191.846ZM190.254 29.448H185.55V30.448H190.254V29.448ZM185.05 29.948V47H186.05V29.948H185.05ZM185.55 46.5H179.964V47.5H185.55V46.5ZM180.464 47V25.538H179.464V47H180.464ZM179.964 26.038H184.332V25.038H179.964V26.038ZM183.885 25.7616L184.641 27.2736L185.535 26.8264L184.779 25.3144L183.885 25.7616ZM185.425 27.42C186.016 26.8827 186.542 26.5294 187.004 26.3348L186.616 25.4132C186.014 25.6666 185.393 26.0973 184.752 26.68L185.425 27.42ZM186.996 26.3382C187.467 26.1498 188.217 26.038 189.288 26.038V25.038C188.176 25.038 187.273 25.1502 186.625 25.4098L186.996 26.3382Z" fill="white"/>
</svg>
