<svg width="83" height="37" viewBox="0 0 83 37" fill="none" xmlns="http://www.w3.org/2000/svg">
<path d="M0.016 30V0.599998H5.77V25.128H14.506V30H0.016ZM29.9236 30H20.7676C17.9676 27.396 16.5676 23.84 16.5676 19.332C16.5676 17.064 16.8756 15.09 17.4916 13.41C18.1356 11.73 19.1436 10.106 20.5156 8.538H30.3436C31.7996 10.218 32.7936 11.856 33.3256 13.452C33.8576 15.02 34.1236 16.98 34.1236 19.332C34.1236 23.84 32.7236 27.396 29.9236 30ZM23.7496 25.59H26.9416C27.9496 23.63 28.4536 21.404 28.4536 18.912C28.4536 16.42 27.9356 14.432 26.8996 12.948H23.7496C22.7416 14.376 22.2376 16.406 22.2376 19.038C22.2376 21.642 22.7416 23.826 23.7496 25.59ZM53.3842 8.538V27.774C53.3842 29.902 53.1042 31.61 52.5442 32.898C52.0122 34.186 50.9342 35.32 49.3102 36.3H39.7342V31.932H46.9162C47.6162 31.512 47.9662 30.84 47.9662 29.916V27.438C46.9302 28.306 45.2782 28.74 43.0102 28.74H39.9442C37.6762 26.024 36.5422 22.874 36.5422 19.29C36.5422 16.714 36.9062 14.614 37.6342 12.99C38.3622 11.338 39.4262 9.854 40.8262 8.538H43.9342C45.7542 8.538 47.1962 9.126 48.2602 10.302L49.0162 8.538H53.3842ZM47.7982 12.948H43.7242C42.7162 14.684 42.2122 16.686 42.2122 18.954C42.2122 21.194 42.6462 23.042 43.5142 24.498H47.7982V12.948ZM56.8177 30V8.538H62.3617V30H56.8177ZM56.8177 0.599998H62.3617V6.27H56.8177V0.599998ZM75.2882 8.538H79.7402C80.9722 10.106 81.8122 11.674 82.2602 13.242C82.7082 14.81 82.9322 16.77 82.9322 19.122V30H77.3462V18.702C77.3462 16.042 76.9822 14.124 76.2542 12.948H71.5502V30H65.9642V8.538H70.3322L71.0882 10.05C71.7042 9.49 72.2782 9.098 72.8102 8.874C73.3702 8.65 74.1962 8.538 75.2882 8.538Z" fill="white"/>
<path d="M0.016 30H-0.484V30.5H0.016V30ZM0.016 0.599998V0.0999985H-0.484V0.599998H0.016ZM5.77 0.599998H6.27V0.0999985H5.77V0.599998ZM5.77 25.128H5.27V25.628H5.77V25.128ZM14.506 25.128H15.006V24.628H14.506V25.128ZM14.506 30V30.5H15.006V30H14.506ZM0.516 30V0.599998H-0.484V30H0.516ZM0.016 1.1H5.77V0.0999985H0.016V1.1ZM5.27 0.599998V25.128H6.27V0.599998H5.27ZM5.77 25.628H14.506V24.628H5.77V25.628ZM14.006 25.128V30H15.006V25.128H14.006ZM14.506 29.5H0.016V30.5H14.506V29.5ZM29.9236 30V30.5H30.1202L30.2641 30.3661L29.9236 30ZM20.7676 30L20.4271 30.3661L20.571 30.5H20.7676V30ZM17.4916 13.41L17.0247 13.231L17.0222 13.2379L17.4916 13.41ZM20.5156 8.538V8.038H20.2887L20.1393 8.20875L20.5156 8.538ZM30.3436 8.538L30.7215 8.21053L30.5719 8.038H30.3436V8.538ZM33.3256 13.452L32.8513 13.6101L32.8521 13.6126L33.3256 13.452ZM23.7496 25.59L23.3155 25.8381L23.4594 26.09H23.7496V25.59ZM26.9416 25.59V26.09H27.2467L27.3863 25.8187L26.9416 25.59ZM26.8996 12.948L27.3096 12.6618L27.1603 12.448H26.8996V12.948ZM23.7496 12.948V12.448H23.4905L23.3411 12.6597L23.7496 12.948ZM29.9236 29.5H20.7676V30.5H29.9236V29.5ZM21.1081 29.6339C18.4281 27.1414 17.0676 23.7282 17.0676 19.332H16.0676C16.0676 23.9518 17.5071 27.6506 20.4271 30.3661L21.1081 29.6339ZM17.0676 19.332C17.0676 17.1077 17.3699 15.1945 17.961 13.5821L17.0222 13.2379C16.3814 14.9855 16.0676 17.0203 16.0676 19.332H17.0676ZM17.9585 13.589C18.5783 11.972 19.5527 10.3978 20.8919 8.86725L20.1393 8.20875C18.7345 9.81422 17.6929 11.488 17.0247 13.231L17.9585 13.589ZM20.5156 9.038H30.3436V8.038H20.5156V9.038ZM29.9658 8.86546C31.3919 10.511 32.3455 12.0929 32.8513 13.6101L33.8 13.2939C33.2417 11.6191 32.2073 9.925 30.7215 8.21053L29.9658 8.86546ZM32.8521 13.6126C33.3609 15.1122 33.6236 17.0136 33.6236 19.332H34.6236C34.6236 16.9464 34.3543 14.9278 33.7991 13.2914L32.8521 13.6126ZM33.6236 19.332C33.6236 23.7282 32.2631 27.1414 29.5831 29.6339L30.2641 30.3661C33.1841 27.6506 34.6236 23.9518 34.6236 19.332H33.6236ZM23.7496 26.09H26.9416V25.09H23.7496V26.09ZM27.3863 25.8187C28.4351 23.7792 28.9536 21.473 28.9536 18.912H27.9536C27.9536 21.3349 27.4641 23.4808 26.497 25.3613L27.3863 25.8187ZM28.9536 18.912C28.9536 16.3552 28.4225 14.256 27.3096 12.6618L26.4896 13.2342C27.4487 14.608 27.9536 16.4848 27.9536 18.912H28.9536ZM26.8996 12.448H23.7496V13.448H26.8996V12.448ZM23.3411 12.6597C22.2504 14.2049 21.7376 16.352 21.7376 19.038H22.7376C22.7376 16.46 23.2328 14.5471 24.1581 13.2363L23.3411 12.6597ZM21.7376 19.038C21.7376 21.705 22.2538 23.9801 23.3155 25.8381L24.1837 25.3419C23.2294 23.6719 22.7376 21.579 22.7376 19.038H21.7376ZM53.3842 8.538H53.8842V8.038H53.3842V8.538ZM52.5442 32.898L52.0856 32.6986L52.0821 32.7071L52.5442 32.898ZM49.3102 36.3V36.8H49.4494L49.5686 36.7281L49.3102 36.3ZM39.7342 36.3H39.2342V36.8H39.7342V36.3ZM39.7342 31.932V31.432H39.2342V31.932H39.7342ZM46.9162 31.932V32.432H47.0547L47.1735 32.3607L46.9162 31.932ZM47.9662 27.438H48.4662V26.3668L47.6451 27.0547L47.9662 27.438ZM39.9442 28.74L39.5604 29.0605L39.7103 29.24H39.9442V28.74ZM37.6342 12.99L38.0905 13.1945L38.0918 13.1916L37.6342 12.99ZM40.8262 8.538V8.038H40.6281L40.4838 8.17369L40.8262 8.538ZM48.2602 10.302L47.8895 10.6375L48.4126 11.2157L48.7198 10.499L48.2602 10.302ZM49.0162 8.538V8.038H48.6865L48.5566 8.34104L49.0162 8.538ZM47.7982 12.948H48.2982V12.448H47.7982V12.948ZM43.7242 12.948V12.448H43.4364L43.2918 12.6969L43.7242 12.948ZM43.5142 24.498L43.0847 24.754L43.2302 24.998H43.5142V24.498ZM47.7982 24.498V24.998H48.2982V24.498H47.7982ZM52.8842 8.538V27.774H53.8842V8.538H52.8842ZM52.8842 27.774C52.8842 29.8654 52.608 31.4974 52.0857 32.6986L53.0028 33.0974C53.6005 31.7226 53.8842 29.9386 53.8842 27.774H52.8842ZM52.0821 32.7071C51.6034 33.8662 50.6169 34.9275 49.0519 35.8719L49.5686 36.7281C51.2516 35.7125 52.4211 34.5058 53.0064 33.0889L52.0821 32.7071ZM49.3102 35.8H39.7342V36.8H49.3102V35.8ZM40.2342 36.3V31.932H39.2342V36.3H40.2342ZM39.7342 32.432H46.9162V31.432H39.7342V32.432ZM47.1735 32.3607C48.0464 31.837 48.4662 30.988 48.4662 29.916H47.4662C47.4662 30.692 47.1861 31.187 46.659 31.5033L47.1735 32.3607ZM48.4662 29.916V27.438H47.4662V29.916H48.4662ZM47.6451 27.0547C46.7427 27.8108 45.234 28.24 43.0102 28.24V29.24C45.3224 29.24 47.1178 28.8012 48.2873 27.8213L47.6451 27.0547ZM43.0102 28.24H39.9442V29.24H43.0102V28.24ZM40.328 28.4195C38.1361 25.7947 37.0422 22.7585 37.0422 19.29H36.0422C36.0422 22.9895 37.2163 26.2533 39.5604 29.0605L40.328 28.4195ZM37.0422 19.29C37.0422 16.7554 37.4012 14.7321 38.0905 13.1945L37.178 12.7855C36.4112 14.4959 36.0422 16.6726 36.0422 19.29H37.0422ZM38.0918 13.1916C38.791 11.6049 39.8144 10.1754 41.1687 8.90231L40.4838 8.17369C39.0381 9.53264 37.9334 11.0711 37.1767 12.7884L38.0918 13.1916ZM40.8262 9.038H43.9342V8.038H40.8262V9.038ZM43.9342 9.038C45.6359 9.038 46.9347 9.58215 47.8895 10.6375L48.631 9.96654C47.4578 8.66985 45.8725 8.038 43.9342 8.038V9.038ZM48.7198 10.499L49.4758 8.73496L48.5566 8.34104L47.8006 10.105L48.7198 10.499ZM49.0162 9.038H53.3842V8.038H49.0162V9.038ZM47.7982 12.448H43.7242V13.448H47.7982V12.448ZM43.2918 12.6969C42.234 14.5187 41.7122 16.6095 41.7122 18.954H42.7122C42.7122 16.7625 43.1984 14.8493 44.1566 13.1991L43.2918 12.6969ZM41.7122 18.954C41.7122 21.256 42.158 23.1995 43.0847 24.754L43.9437 24.242C43.1344 22.8845 42.7122 21.132 42.7122 18.954H41.7122ZM43.5142 24.998H47.7982V23.998H43.5142V24.998ZM48.2982 24.498V12.948H47.2982V24.498H48.2982ZM56.8177 30H56.3177V30.5H56.8177V30ZM56.8177 8.538V8.038H56.3177V8.538H56.8177ZM62.3617 8.538H62.8617V8.038H62.3617V8.538ZM62.3617 30V30.5H62.8617V30H62.3617ZM56.8177 0.599998V0.0999985H56.3177V0.599998H56.8177ZM62.3617 0.599998H62.8617V0.0999985H62.3617V0.599998ZM62.3617 6.27V6.77H62.8617V6.27H62.3617ZM56.8177 6.27H56.3177V6.77H56.8177V6.27ZM57.3177 30V8.538H56.3177V30H57.3177ZM56.8177 9.038H62.3617V8.038H56.8177V9.038ZM61.8617 8.538V30H62.8617V8.538H61.8617ZM62.3617 29.5H56.8177V30.5H62.3617V29.5ZM56.8177 1.1H62.3617V0.0999985H56.8177V1.1ZM61.8617 0.599998V6.27H62.8617V0.599998H61.8617ZM62.3617 5.77H56.8177V6.77H62.3617V5.77ZM57.3177 6.27V0.599998H56.3177V6.27H57.3177ZM79.7402 8.538L80.1334 8.22909L79.9832 8.038H79.7402V8.538ZM82.9322 30V30.5H83.4322V30H82.9322ZM77.3462 30H76.8462V30.5H77.3462V30ZM76.2542 12.948L76.6793 12.6848L76.5327 12.448H76.2542V12.948ZM71.5502 12.948V12.448H71.0502V12.948H71.5502ZM71.5502 30V30.5H72.0502V30H71.5502ZM65.9642 30H65.4642V30.5H65.9642V30ZM65.9642 8.538V8.038H65.4642V8.538H65.9642ZM70.3322 8.538L70.7794 8.31439L70.6412 8.038H70.3322V8.538ZM71.0882 10.05L70.641 10.2736L70.9362 10.8639L71.4245 10.42L71.0882 10.05ZM72.8102 8.874L72.6245 8.40969L72.6162 8.41318L72.8102 8.874ZM75.2882 9.038H79.7402V8.038H75.2882V9.038ZM79.347 8.84691C80.5477 10.375 81.3527 11.8859 81.7794 13.3794L82.741 13.1046C82.2717 11.4621 81.3967 9.83702 80.1334 8.22909L79.347 8.84691ZM81.7794 13.3794C82.2104 14.8878 82.4322 16.7978 82.4322 19.122H83.4322C83.4322 16.7422 83.206 14.7322 82.741 13.1046L81.7794 13.3794ZM82.4322 19.122V30H83.4322V19.122H82.4322ZM82.9322 29.5H77.3462V30.5H82.9322V29.5ZM77.8462 30V18.702H76.8462V30H77.8462ZM77.8462 18.702C77.8462 16.0208 77.4838 13.9843 76.6793 12.6848L75.8291 13.2112C76.4806 14.2637 76.8462 16.0632 76.8462 18.702H77.8462ZM76.2542 12.448H71.5502V13.448H76.2542V12.448ZM71.0502 12.948V30H72.0502V12.948H71.0502ZM71.5502 29.5H65.9642V30.5H71.5502V29.5ZM66.4642 30V8.538H65.4642V30H66.4642ZM65.9642 9.038H70.3322V8.038H65.9642V9.038ZM69.885 8.7616L70.641 10.2736L71.5354 9.82639L70.7794 8.31439L69.885 8.7616ZM71.4245 10.42C72.0155 9.88272 72.5421 9.52942 73.0042 9.33482L72.6162 8.41318C72.0144 8.66658 71.3929 9.09728 70.7519 9.68003L71.4245 10.42ZM72.9959 9.33824C73.4669 9.14983 74.2167 9.038 75.2882 9.038V8.038C74.1757 8.038 73.2735 8.15017 72.6245 8.40976L72.9959 9.33824Z" fill="white"/>
</svg>
