<svg width="127" height="14" viewBox="0 0 127 14" fill="none" xmlns="http://www.w3.org/2000/svg">
<path d="M11.208 1.96V13H10.088V4.184L6.152 13H5.336L1.4 4.216V13H0.28V1.96H1.464L5.736 11.528L10.008 1.96H11.208ZM17.5728 13.128C16.7514 13.128 16.0101 12.9467 15.3488 12.584C14.6981 12.2107 14.1808 11.688 13.7968 11.016C13.4234 10.3333 13.2368 9.53867 13.2368 8.632C13.2368 7.72533 13.4288 6.936 13.8128 6.264C14.1968 5.58133 14.7194 5.05867 15.3808 4.696C16.0421 4.32267 16.7834 4.136 17.6048 4.136C18.4261 4.136 19.1674 4.32267 19.8288 4.696C20.5008 5.05867 21.0234 5.58133 21.3968 6.264C21.7808 6.936 21.9728 7.72533 21.9728 8.632C21.9728 9.528 21.7808 10.3173 21.3968 11C21.0128 11.6827 20.4848 12.2107 19.8128 12.584C19.1408 12.9467 18.3941 13.128 17.5728 13.128ZM17.5728 12.152C18.1488 12.152 18.6821 12.024 19.1728 11.768C19.6634 11.5013 20.0581 11.1067 20.3568 10.584C20.6661 10.0507 20.8208 9.4 20.8208 8.632C20.8208 7.864 20.6714 7.21867 20.3728 6.696C20.0741 6.16267 19.6794 5.768 19.1888 5.512C18.6981 5.24533 18.1648 5.112 17.5888 5.112C17.0128 5.112 16.4794 5.24533 15.9888 5.512C15.4981 5.768 15.1034 6.16267 14.8048 6.696C14.5168 7.21867 14.3728 7.864 14.3728 8.632C14.3728 9.4 14.5168 10.0507 14.8048 10.584C15.1034 11.1067 15.4928 11.5013 15.9728 11.768C16.4634 12.024 16.9968 12.152 17.5728 12.152ZM23.5024 8.616C23.5024 7.72 23.6837 6.936 24.0464 6.264C24.409 5.58133 24.905 5.05867 25.5344 4.696C26.1744 4.32267 26.8944 4.136 27.6944 4.136C28.4624 4.136 29.1557 4.32267 29.7744 4.696C30.393 5.06933 30.8464 5.55467 31.1344 6.152V1.16H32.2544V13H31.1344V11.048C30.8677 11.656 30.4304 12.1573 29.8224 12.552C29.2144 12.936 28.4997 13.128 27.6784 13.128C26.8784 13.128 26.1584 12.9413 25.5184 12.568C24.889 12.1947 24.393 11.6667 24.0304 10.984C23.6784 10.3013 23.5024 9.512 23.5024 8.616ZM31.1344 8.632C31.1344 7.928 30.9904 7.30933 30.7024 6.776C30.4144 6.24267 30.0197 5.832 29.5184 5.544C29.0277 5.256 28.4837 5.112 27.8864 5.112C27.2677 5.112 26.713 5.25067 26.2224 5.528C25.7317 5.80533 25.3424 6.21067 25.0544 6.744C24.777 7.26667 24.6384 7.89067 24.6384 8.616C24.6384 9.33067 24.777 9.96 25.0544 10.504C25.3424 11.0373 25.7317 11.448 26.2224 11.736C26.713 12.0133 27.2677 12.152 27.8864 12.152C28.4837 12.152 29.0277 12.008 29.5184 11.72C30.0197 11.432 30.4144 11.0213 30.7024 10.488C30.9904 9.95467 31.1344 9.336 31.1344 8.632ZM42.3793 4.264V13H41.2593V11.464C41.0033 12.008 40.6086 12.424 40.0753 12.712C39.5419 13 38.9446 13.144 38.2833 13.144C37.2379 13.144 36.3846 12.824 35.7233 12.184C35.0619 11.5333 34.7313 10.5947 34.7313 9.368V4.264H35.8353V9.24C35.8353 10.1893 36.0699 10.9147 36.5393 11.416C37.0193 11.9173 37.6699 12.168 38.4913 12.168C39.3339 12.168 40.0059 11.9013 40.5073 11.368C41.0086 10.8347 41.2593 10.0507 41.2593 9.016V4.264H42.3793ZM46.0563 1.16V13H44.9363V1.16H46.0563ZM56.4965 8.184C56.4965 8.568 56.4858 8.86133 56.4645 9.064H49.2165C49.2485 9.72533 49.4085 10.2907 49.6965 10.76C49.9845 11.2293 50.3632 11.5867 50.8325 11.832C51.3018 12.0667 51.8138 12.184 52.3685 12.184C53.0938 12.184 53.7018 12.008 54.1925 11.656C54.6938 11.304 55.0245 10.8293 55.1845 10.232H56.3685C56.1552 11.0853 55.6965 11.784 54.9925 12.328C54.2992 12.8613 53.4245 13.128 52.3685 13.128C51.5472 13.128 50.8112 12.9467 50.1605 12.584C49.5098 12.2107 48.9978 11.688 48.6245 11.016C48.2618 10.3333 48.0805 9.53867 48.0805 8.632C48.0805 7.72533 48.2618 6.93067 48.6245 6.248C48.9872 5.56533 49.4938 5.04267 50.1445 4.68C50.7952 4.31733 51.5365 4.136 52.3685 4.136C53.2005 4.136 53.9258 4.31733 54.5445 4.68C55.1738 5.04267 55.6538 5.53333 55.9845 6.152C56.3258 6.76 56.4965 7.43733 56.4965 8.184ZM55.3605 8.152C55.3712 7.50133 55.2378 6.94667 54.9605 6.488C54.6938 6.02933 54.3258 5.68267 53.8565 5.448C53.3872 5.21333 52.8752 5.096 52.3205 5.096C51.4885 5.096 50.7792 5.36267 50.1925 5.896C49.6058 6.42933 49.2805 7.18133 49.2165 8.152H55.3605ZM58.7376 13.08C58.503 13.08 58.3056 13 58.1456 12.84C57.9963 12.68 57.9216 12.4827 57.9216 12.248C57.9216 12.0133 57.9963 11.8213 58.1456 11.672C58.3056 11.512 58.503 11.432 58.7376 11.432C58.9616 11.432 59.1483 11.512 59.2976 11.672C59.4576 11.8213 59.5376 12.0133 59.5376 12.248C59.5376 12.4827 59.4576 12.68 59.2976 12.84C59.1483 13 58.9616 13.08 58.7376 13.08ZM58.7376 6.12C58.503 6.12 58.3056 6.04 58.1456 5.88C57.9963 5.72 57.9216 5.52267 57.9216 5.288C57.9216 5.05333 57.9963 4.86133 58.1456 4.712C58.3056 4.552 58.503 4.472 58.7376 4.472C58.9616 4.472 59.1483 4.552 59.2976 4.712C59.4576 4.86133 59.5376 5.05333 59.5376 5.288C59.5376 5.52267 59.4576 5.72 59.2976 5.88C59.1483 6.04 58.9616 6.12 58.7376 6.12ZM75.0134 4.09C74.6894 3.466 74.2394 2.998 73.6634 2.686C73.0874 2.362 72.4214 2.2 71.6654 2.2C70.8374 2.2 70.0994 2.386 69.4514 2.758C68.8034 3.13 68.2934 3.658 67.9214 4.342C67.5614 5.026 67.3814 5.818 67.3814 6.718C67.3814 7.618 67.5614 8.416 67.9214 9.112C68.2934 9.796 68.8034 10.324 69.4514 10.696C70.0994 11.068 70.8374 11.254 71.6654 11.254C72.7814 11.254 73.6874 10.942 74.3834 10.318C75.0794 9.694 75.5054 8.848 75.6614 7.78H70.9634V6.142H77.8574V7.744C77.7254 8.716 77.3774 9.61 76.8134 10.426C76.2614 11.242 75.5354 11.896 74.6354 12.388C73.7474 12.868 72.7574 13.108 71.6654 13.108C70.4894 13.108 69.4154 12.838 68.4434 12.298C67.4714 11.746 66.6974 10.984 66.1214 10.012C65.5574 9.04 65.2754 7.942 65.2754 6.718C65.2754 5.494 65.5574 4.396 66.1214 3.424C66.6974 2.452 67.4714 1.696 68.4434 1.156C69.4274 0.603999 70.5014 0.327999 71.6654 0.327999C72.9974 0.327999 74.1794 0.657999 75.2114 1.318C76.2554 1.966 77.0114 2.89 77.4794 4.09H75.0134ZM87.4233 10.444H82.1853L81.2853 13H79.1433L83.6253 0.471999H86.0013L90.4833 13H88.3233L87.4233 10.444ZM86.8473 8.77L84.8133 2.956L82.7613 8.77H86.8473ZM105.608 0.489999V13H103.556V4.432L99.74 13H98.318L94.484 4.432V13H92.432V0.489999H94.646L99.038 10.3L103.412 0.489999H105.608ZM110.357 2.146V5.818H114.677V7.492H110.357V11.326H115.217V13H108.305V0.471999H115.217V2.146H110.357ZM121.867 13.126C121.027 13.126 120.271 12.982 119.599 12.694C118.927 12.394 118.399 11.974 118.015 11.434C117.631 10.894 117.439 10.264 117.439 9.544H119.635C119.683 10.084 119.893 10.528 120.265 10.876C120.649 11.224 121.183 11.398 121.867 11.398C122.575 11.398 123.127 11.23 123.523 10.894C123.919 10.546 124.117 10.102 124.117 9.562C124.117 9.142 123.991 8.8 123.739 8.536C123.499 8.272 123.193 8.068 122.821 7.924C122.461 7.78 121.957 7.624 121.309 7.456C120.493 7.24 119.827 7.024 119.311 6.808C118.807 6.58 118.375 6.232 118.015 5.764C117.655 5.296 117.475 4.672 117.475 3.892C117.475 3.172 117.655 2.542 118.015 2.002C118.375 1.462 118.879 1.048 119.527 0.76C120.175 0.471999 120.925 0.327999 121.777 0.327999C122.989 0.327999 123.979 0.633999 124.747 1.246C125.527 1.846 125.959 2.674 126.043 3.73H123.775C123.739 3.274 123.523 2.884 123.127 2.56C122.731 2.236 122.209 2.074 121.561 2.074C120.973 2.074 120.493 2.224 120.121 2.524C119.749 2.824 119.563 3.256 119.563 3.82C119.563 4.204 119.677 4.522 119.905 4.774C120.145 5.014 120.445 5.206 120.805 5.35C121.165 5.494 121.657 5.65 122.281 5.818C123.109 6.046 123.781 6.274 124.297 6.502C124.825 6.73 125.269 7.084 125.629 7.564C126.001 8.032 126.187 8.662 126.187 9.454C126.187 10.09 126.013 10.69 125.665 11.254C125.329 11.818 124.831 12.274 124.171 12.622C123.523 12.958 122.755 13.126 121.867 13.126Z" fill="white"/>
</svg>
