<svg width="14" height="13" viewBox="0 0 14 13" fill="none" xmlns="http://www.w3.org/2000/svg">
<path d="M7.33334 0C7.99638 0 8.63226 0.263392 9.1011 0.732233C9.56994 1.20107 9.83334 1.83696 9.83334 2.5C9.83334 3.16304 9.56994 3.79893 9.1011 4.26777C8.63226 4.73661 7.99638 5 7.33334 5C6.67029 5 6.03441 4.73661 5.56557 4.26777C5.09673 3.79893 4.83334 3.16304 4.83334 2.5C4.83334 1.83696 5.09673 1.20107 5.56557 0.732233C6.03441 0.263392 6.67029 0 7.33334 0ZM7.33334 6.25C10.0958 6.25 12.3333 7.36875 12.3333 8.75V10H2.33334V8.75C2.33334 7.36875 4.57084 6.25 7.33334 6.25Z" fill="#F2613F"/>
<path d="M0.332 10.606V11.488C0.332 11.612 0.362 11.704 0.422 11.764C0.483333 11.824 0.568 11.854 0.676 11.854C0.782667 11.854 0.866 11.824 0.926 11.764C0.987333 11.704 1.018 11.612 1.018 11.488V10.606H1.2V11.486C1.2 11.602 1.17667 11.7 1.13 11.78C1.08333 11.8587 1.02 11.9173 0.94 11.956C0.861333 11.9947 0.772667 12.014 0.674 12.014C0.575333 12.014 0.486 11.9947 0.406 11.956C0.327333 11.9173 0.264667 11.8587 0.218 11.78C0.172667 11.7 0.15 11.602 0.15 11.486V10.606H0.332ZM1.68561 11.106C1.72161 11.0433 1.77494 10.9913 1.84561 10.95C1.91761 10.9073 2.00094 10.886 2.09561 10.886C2.19294 10.886 2.28094 10.9093 2.35961 10.956C2.43961 11.0027 2.50228 11.0687 2.54761 11.154C2.59294 11.238 2.61561 11.336 2.61561 11.448C2.61561 11.5587 2.59294 11.6573 2.54761 11.744C2.50228 11.8307 2.43961 11.898 2.35961 11.946C2.28094 11.994 2.19294 12.018 2.09561 12.018C2.00228 12.018 1.91961 11.9973 1.84761 11.956C1.77694 11.9133 1.72294 11.8607 1.68561 11.798V12.52H1.50361V10.904H1.68561V11.106ZM2.42961 11.448C2.42961 11.3653 2.41294 11.2933 2.37961 11.232C2.34628 11.1707 2.30094 11.124 2.24361 11.092C2.18761 11.06 2.12561 11.044 2.05761 11.044C1.99094 11.044 1.92894 11.0607 1.87161 11.094C1.81561 11.126 1.77028 11.1733 1.73561 11.236C1.70228 11.2973 1.68561 11.3687 1.68561 11.45C1.68561 11.5327 1.70228 11.6053 1.73561 11.668C1.77028 11.7293 1.81561 11.7767 1.87161 11.81C1.92894 11.842 1.99094 11.858 2.05761 11.858C2.12561 11.858 2.18761 11.842 2.24361 11.81C2.30094 11.7767 2.34628 11.7293 2.37961 11.668C2.41294 11.6053 2.42961 11.532 2.42961 11.448ZM3.03717 10.52V12H2.85517V10.52H3.03717ZM3.82536 12.018C3.72269 12.018 3.62936 11.9947 3.54536 11.948C3.46269 11.9013 3.39736 11.8353 3.34936 11.75C3.30269 11.6633 3.27936 11.5633 3.27936 11.45C3.27936 11.338 3.30336 11.2393 3.35136 11.154C3.40069 11.0673 3.46736 11.0013 3.55136 10.956C3.63536 10.9093 3.72936 10.886 3.83336 10.886C3.93736 10.886 4.03136 10.9093 4.11536 10.956C4.19936 11.0013 4.26536 11.0667 4.31336 11.152C4.36269 11.2373 4.38736 11.3367 4.38736 11.45C4.38736 11.5633 4.36203 11.6633 4.31136 11.75C4.26203 11.8353 4.19469 11.9013 4.10936 11.948C4.02403 11.9947 3.92936 12.018 3.82536 12.018ZM3.82536 11.858C3.89069 11.858 3.95203 11.8427 4.00936 11.812C4.06669 11.7813 4.11269 11.7353 4.14736 11.674C4.18336 11.6127 4.20136 11.538 4.20136 11.45C4.20136 11.362 4.18403 11.2873 4.14936 11.226C4.11469 11.1647 4.06936 11.1193 4.01336 11.09C3.95736 11.0593 3.89669 11.044 3.83136 11.044C3.76469 11.044 3.70336 11.0593 3.64736 11.09C3.59269 11.1193 3.54869 11.1647 3.51536 11.226C3.48203 11.2873 3.46536 11.362 3.46536 11.45C3.46536 11.5393 3.48136 11.6147 3.51336 11.676C3.54669 11.7373 3.59069 11.7833 3.64536 11.814C3.70003 11.8433 3.76003 11.858 3.82536 11.858ZM4.55866 11.448C4.55866 11.336 4.58132 11.238 4.62666 11.154C4.67199 11.0687 4.73399 11.0027 4.81266 10.956C4.89266 10.9093 4.98132 10.886 5.07866 10.886C5.17466 10.886 5.25799 10.9067 5.32866 10.948C5.39932 10.9893 5.45199 11.0413 5.48666 11.104V10.904H5.67066V12H5.48666V11.796C5.45066 11.86 5.39666 11.9133 5.32466 11.956C5.25399 11.9973 5.17132 12.018 5.07666 12.018C4.97932 12.018 4.89132 11.994 4.81266 11.946C4.73399 11.898 4.67199 11.8307 4.62666 11.744C4.58132 11.6573 4.55866 11.5587 4.55866 11.448ZM5.48666 11.45C5.48666 11.3673 5.46999 11.2953 5.43666 11.234C5.40332 11.1727 5.35799 11.126 5.30066 11.094C5.24466 11.0607 5.18266 11.044 5.11466 11.044C5.04666 11.044 4.98466 11.06 4.92866 11.092C4.87266 11.124 4.82799 11.1707 4.79466 11.232C4.76132 11.2933 4.74466 11.3653 4.74466 11.448C4.74466 11.532 4.76132 11.6053 4.79466 11.668C4.82799 11.7293 4.87266 11.7767 4.92866 11.81C4.98466 11.842 5.04666 11.858 5.11466 11.858C5.18266 11.858 5.24466 11.842 5.30066 11.81C5.35799 11.7767 5.40332 11.7293 5.43666 11.668C5.46999 11.6053 5.48666 11.5327 5.48666 11.45ZM5.91022 11.448C5.91022 11.336 5.93289 11.238 5.97822 11.154C6.02355 11.0687 6.08555 11.0027 6.16422 10.956C6.24422 10.9093 6.33355 10.886 6.43222 10.886C6.51755 10.886 6.59689 10.906 6.67022 10.946C6.74355 10.9847 6.79955 11.036 6.83822 11.1V10.52H7.02222V12H6.83822V11.794C6.80222 11.8593 6.74889 11.9133 6.67822 11.956C6.60755 11.9973 6.52489 12.018 6.43022 12.018C6.33289 12.018 6.24422 11.994 6.16422 11.946C6.08555 11.898 6.02355 11.8307 5.97822 11.744C5.93289 11.6573 5.91022 11.5587 5.91022 11.448ZM6.83822 11.45C6.83822 11.3673 6.82155 11.2953 6.78822 11.234C6.75489 11.1727 6.70955 11.126 6.65222 11.094C6.59622 11.0607 6.53422 11.044 6.46622 11.044C6.39822 11.044 6.33622 11.06 6.28022 11.092C6.22422 11.124 6.17955 11.1707 6.14622 11.232C6.11289 11.2933 6.09622 11.3653 6.09622 11.448C6.09622 11.532 6.11289 11.6053 6.14622 11.668C6.17955 11.7293 6.22422 11.7767 6.28022 11.81C6.33622 11.842 6.39822 11.858 6.46622 11.858C6.53422 11.858 6.59622 11.842 6.65222 11.81C6.70955 11.7767 6.75489 11.7293 6.78822 11.668C6.82155 11.6053 6.83822 11.5327 6.83822 11.45ZM8.79498 11.014C8.79498 11.13 8.75498 11.2267 8.67498 11.304C8.59632 11.38 8.47565 11.418 8.31298 11.418H8.04498V12H7.86298V10.606H8.31298C8.47032 10.606 8.58965 10.644 8.67098 10.72C8.75365 10.796 8.79498 10.894 8.79498 11.014ZM8.31298 11.268C8.41432 11.268 8.48898 11.246 8.53698 11.202C8.58498 11.158 8.60898 11.0953 8.60898 11.014C8.60898 10.842 8.51032 10.756 8.31298 10.756H8.04498V11.268H8.31298ZM9.56519 10.884C9.64785 10.884 9.72252 10.902 9.78919 10.938C9.85585 10.9727 9.90785 11.0253 9.94519 11.096C9.98385 11.1667 10.0032 11.2527 10.0032 11.354V12H9.82319V11.38C9.82319 11.2707 9.79585 11.1873 9.74119 11.13C9.68652 11.0713 9.61185 11.042 9.51719 11.042C9.42119 11.042 9.34452 11.072 9.28719 11.132C9.23119 11.192 9.20319 11.2793 9.20319 11.394V12H9.02119V10.52H9.20319V11.06C9.23919 11.004 9.28852 10.9607 9.35119 10.93C9.41519 10.8993 9.48652 10.884 9.56519 10.884ZM10.7785 12.018C10.6758 12.018 10.5825 11.9947 10.4985 11.948C10.4158 11.9013 10.3505 11.8353 10.3025 11.75C10.2558 11.6633 10.2325 11.5633 10.2325 11.45C10.2325 11.338 10.2565 11.2393 10.3045 11.154C10.3538 11.0673 10.4205 11.0013 10.5045 10.956C10.5885 10.9093 10.6825 10.886 10.7865 10.886C10.8905 10.886 10.9845 10.9093 11.0685 10.956C11.1525 11.0013 11.2185 11.0667 11.2665 11.152C11.3158 11.2373 11.3405 11.3367 11.3405 11.45C11.3405 11.5633 11.3152 11.6633 11.2645 11.75C11.2152 11.8353 11.1478 11.9013 11.0625 11.948C10.9772 11.9947 10.8825 12.018 10.7785 12.018ZM10.7785 11.858C10.8438 11.858 10.9052 11.8427 10.9625 11.812C11.0198 11.7813 11.0658 11.7353 11.1005 11.674C11.1365 11.6127 11.1545 11.538 11.1545 11.45C11.1545 11.362 11.1372 11.2873 11.1025 11.226C11.0678 11.1647 11.0225 11.1193 10.9665 11.09C10.9105 11.0593 10.8498 11.044 10.7845 11.044C10.7178 11.044 10.6565 11.0593 10.6005 11.09C10.5458 11.1193 10.5018 11.1647 10.4685 11.226C10.4352 11.2873 10.4185 11.362 10.4185 11.45C10.4185 11.5393 10.4345 11.6147 10.4665 11.676C10.4998 11.7373 10.5438 11.7833 10.5985 11.814C10.6532 11.8433 10.7132 11.858 10.7785 11.858ZM11.8018 11.054V11.7C11.8018 11.7533 11.8131 11.7913 11.8358 11.814C11.8584 11.8353 11.8978 11.846 11.9538 11.846H12.0878V12H11.9238C11.8224 12 11.7464 11.9767 11.6958 11.93C11.6451 11.8833 11.6198 11.8067 11.6198 11.7V11.054H11.4778V10.904H11.6198V10.628H11.8018V10.904H12.0878V11.054H11.8018ZM12.7863 12.018C12.6836 12.018 12.5903 11.9947 12.5063 11.948C12.4236 11.9013 12.3583 11.8353 12.3103 11.75C12.2636 11.6633 12.2403 11.5633 12.2403 11.45C12.2403 11.338 12.2643 11.2393 12.3123 11.154C12.3616 11.0673 12.4283 11.0013 12.5123 10.956C12.5963 10.9093 12.6903 10.886 12.7943 10.886C12.8983 10.886 12.9923 10.9093 13.0763 10.956C13.1603 11.0013 13.2263 11.0667 13.2743 11.152C13.3236 11.2373 13.3483 11.3367 13.3483 11.45C13.3483 11.5633 13.323 11.6633 13.2723 11.75C13.223 11.8353 13.1556 11.9013 13.0703 11.948C12.985 11.9947 12.8903 12.018 12.7863 12.018ZM12.7863 11.858C12.8516 11.858 12.913 11.8427 12.9703 11.812C13.0276 11.7813 13.0736 11.7353 13.1083 11.674C13.1443 11.6127 13.1623 11.538 13.1623 11.45C13.1623 11.362 13.145 11.2873 13.1103 11.226C13.0756 11.1647 13.0303 11.1193 12.9743 11.09C12.9183 11.0593 12.8576 11.044 12.7923 11.044C12.7256 11.044 12.6643 11.0593 12.6083 11.09C12.5536 11.1193 12.5096 11.1647 12.4763 11.226C12.443 11.2873 12.4263 11.362 12.4263 11.45C12.4263 11.5393 12.4423 11.6147 12.4743 11.676C12.5076 11.7373 12.5516 11.7833 12.6063 11.814C12.661 11.8433 12.721 11.858 12.7863 11.858Z" fill="white"/>
<path d="M0 12.2H13.4343V12.3H0V12.2Z" fill="white"/>
</svg>
