<svg width="12" height="14" viewBox="0 0 12 14" fill="none" xmlns="http://www.w3.org/2000/svg">
<path d="M9.68987 0.952L8.87316 0H2.44147C1.97744 0 1.7981 0.3612 1.7981 0.6433V3.1843H2.70015V1.1571C2.70015 1.0493 2.78682 0.9583 2.88683 0.9583H7.48908C7.59042 0.9583 7.64109 0.9772 7.64109 1.0647V4.4387H10.9166C11.0453 4.4387 11.0953 4.5087 11.0953 4.6109V12.8499C11.0953 13.0221 11.0286 13.048 10.9286 13.048H2.88683C2.83724 13.0467 2.79005 13.0253 2.75523 12.9882C2.7204 12.9511 2.70065 12.9013 2.70015 12.8492V12.096H1.8041V13.2825C1.7921 13.7025 2.00544 14 2.44147 14H11.374C11.8407 14 12 13.6451 12 13.3217V3.6309L11.7667 3.3649L9.68987 0.952ZM8.55781 1.064L8.81582 1.3678L10.5466 3.3649L10.6419 3.486H8.87316C8.73982 3.486 8.65537 3.46267 8.61981 3.416C8.58425 3.37027 8.56359 3.29723 8.55781 3.1969V1.064ZM7.8311 7.4669H10.8826V8.4007H7.83043L7.8311 7.4669ZM7.8311 5.6007H10.8826V6.5338H7.83043L7.8311 5.6007ZM7.8311 9.3338H10.8826V10.2676H7.83043L7.8311 9.3338ZM0 3.9382V11.4051H6.97705V3.9382H0ZM3.48886 8.281L3.06217 8.9656H3.48886V9.8H1.34407L2.90016 7.343L1.52142 5.1338H2.67348L3.48953 6.419L4.30491 5.1338H5.4563L4.07489 7.343L5.63298 9.8H4.43758L3.48886 8.281Z" fill="white"/>
</svg>
