<svg width="66" height="24" viewBox="0 0 66 24" fill="none" xmlns="http://www.w3.org/2000/svg">
<rect x="0.5" y="2.5" width="65" height="19" rx="9.5" fill="#F2613F" stroke="white"/>
<path d="M24.144 6.816L19.904 18H18.624L14.384 6.816H15.6L19.264 16.784L22.96 6.816H24.144ZM26.3869 7.616C26.1629 7.616 25.9709 7.536 25.8109 7.376C25.6509 7.216 25.5709 7.01867 25.5709 6.784C25.5709 6.54933 25.6509 6.35733 25.8109 6.208C25.9709 6.048 26.1629 5.968 26.3869 5.968C26.6109 5.968 26.8029 6.048 26.9629 6.208C27.1229 6.35733 27.2029 6.54933 27.2029 6.784C27.2029 7.01867 27.1229 7.216 26.9629 7.376C26.8029 7.536 26.6109 7.616 26.3869 7.616ZM26.9469 9.264V18H25.8269V9.264H26.9469ZM37.3871 13.184C37.3871 13.568 37.3765 13.8613 37.3551 14.064H30.1071C30.1391 14.7253 30.2991 15.2907 30.5871 15.76C30.8751 16.2293 31.2538 16.5867 31.7231 16.832C32.1925 17.0667 32.7045 17.184 33.2591 17.184C33.9845 17.184 34.5925 17.008 35.0831 16.656C35.5845 16.304 35.9151 15.8293 36.0751 15.232H37.2591C37.0458 16.0853 36.5871 16.784 35.8831 17.328C35.1898 17.8613 34.3151 18.128 33.2591 18.128C32.4378 18.128 31.7018 17.9467 31.0511 17.584C30.4005 17.2107 29.8885 16.688 29.5151 16.016C29.1525 15.3333 28.9711 14.5387 28.9711 13.632C28.9711 12.7253 29.1525 11.9307 29.5151 11.248C29.8778 10.5653 30.3845 10.0427 31.0351 9.68C31.6858 9.31733 32.4271 9.136 33.2591 9.136C34.0911 9.136 34.8165 9.31733 35.4351 9.68C36.0645 10.0427 36.5445 10.5333 36.8751 11.152C37.2165 11.76 37.3871 12.4373 37.3871 13.184ZM36.2511 13.152C36.2618 12.5013 36.1285 11.9467 35.8511 11.488C35.5845 11.0293 35.2165 10.6827 34.7471 10.448C34.2778 10.2133 33.7658 10.096 33.2111 10.096C32.3791 10.096 31.6698 10.3627 31.0831 10.896C30.4965 11.4293 30.1711 12.1813 30.1071 13.152H36.2511ZM50.9563 9.264L48.2203 18H47.1003L44.6843 10.672L42.2682 18H41.1323L38.3963 9.264H39.5323L41.7083 16.864L44.1563 9.264H45.2763L47.6923 16.88L49.8523 9.264H50.9563Z" fill="white"/>
</svg>
