<svg width="145" height="26" viewBox="0 0 145 26" fill="none" xmlns="http://www.w3.org/2000/svg">
<path d="M0.18 15.56V12.068H12.204V15.56H0.18ZM4.428 19.988V7.604H7.884V19.988H4.428ZM24.831 26L24.075 22.004H18.387L17.631 26H12.735L17.595 0.799998H25.047L29.655 26H24.831ZM21.159 5.48L19.755 13.868L18.963 18.152H23.463L22.635 13.868L21.231 5.48H21.159ZM45.3277 26H41.6917L41.0437 24.704C40.5157 25.184 40.0117 25.52 39.5317 25.712C39.0757 25.904 38.3797 26 37.4437 26H34.3117C33.2557 24.992 32.4157 23.672 31.7917 22.04C31.1917 20.408 30.8917 18.584 30.8917 16.568C30.8917 14.528 31.1917 12.8 31.7917 11.384C32.4157 9.968 33.2917 8.708 34.4197 7.604H37.5157C38.7877 7.604 39.7957 7.94 40.5397 8.612V0.799998H45.3277V26ZM40.5397 11.384H37.0837C36.1957 12.896 35.7517 14.756 35.7517 16.964C35.7517 19.148 36.1837 20.9 37.0477 22.22H40.5397V11.384ZM62.3433 26H58.7073L58.0593 24.704C57.5313 25.184 57.0273 25.52 56.5473 25.712C56.0913 25.904 55.3953 26 54.4593 26H51.3273C50.2713 24.992 49.4313 23.672 48.8073 22.04C48.2073 20.408 47.9073 18.584 47.9073 16.568C47.9073 14.528 48.2073 12.8 48.8073 11.384C49.4313 9.968 50.3073 8.708 51.4353 7.604H54.5313C55.8033 7.604 56.8113 7.94 57.5553 8.612V0.799998H62.3433V26ZM57.5553 11.384H54.0993C53.2113 12.896 52.7673 14.756 52.7673 16.964C52.7673 19.148 53.1993 20.9 54.0633 22.22H57.5553V11.384ZM83.3245 26H75.6925C73.9645 24.416 72.7045 22.532 71.9125 20.348C71.1205 18.164 70.7245 15.884 70.7245 13.508C70.7245 11.108 71.2045 8.744 72.1645 6.416C73.1245 4.088 74.4685 2.216 76.1965 0.799998H84.9445V5.12H78.2485C77.6245 5.84 77.0845 6.98 76.6285 8.54C76.1725 10.076 75.9445 11.72 75.9445 13.472C75.9445 15.2 76.1485 16.856 76.5565 18.44C76.9885 20 77.5165 21.128 78.1405 21.824H81.5965V12.032H86.3485V18.08C86.3485 21.392 85.3405 24.032 83.3245 26ZM97.6576 17.684H93.8056C93.3016 18.308 93.0496 19.088 93.0496 20.024C93.0496 20.96 93.3136 21.692 93.8416 22.22H97.6576V17.684ZM89.9176 7.604H98.8456C100.286 8.468 101.234 9.464 101.69 10.592C102.146 11.696 102.374 13.208 102.374 15.128V20.528C102.374 22.52 102.422 24.344 102.518 26H98.4136L97.7656 24.704C96.8296 25.568 95.5096 26 93.8056 26H91.5376C89.4976 24.656 88.4776 22.724 88.4776 20.204C88.4776 17.66 89.5216 15.656 91.6096 14.192H94.9936C95.9296 14.192 96.8056 14.48 97.6216 15.056V13.256C97.6216 12.32 97.2136 11.696 96.3976 11.384H89.9176V7.604ZM113.462 7.604H116.018L116.918 8.864C117.422 8.408 117.902 8.084 118.358 7.892C118.838 7.7 119.546 7.604 120.482 7.604H124.478C125.534 8.948 126.254 10.292 126.638 11.636C127.022 12.98 127.214 14.66 127.214 16.676V26H122.426V16.316C122.426 14.108 122.09 12.464 121.418 11.384H117.962C118.49 12.416 118.754 13.82 118.754 15.596V26H113.966V16.316C113.966 14.036 113.654 12.392 113.03 11.384H110.258V26H105.47V7.604H109.214L109.862 8.9C110.39 8.42 110.882 8.084 111.338 7.892C111.818 7.7 112.526 7.604 113.462 7.604ZM138.466 11.384H135.766C135.406 11.816 135.106 12.416 134.866 13.184C134.65 13.952 134.542 14.696 134.542 15.416H139.69C139.738 14.696 139.642 13.952 139.402 13.184C139.162 12.392 138.85 11.792 138.466 11.384ZM143.362 22.22V26H134.218C132.538 24.872 131.35 23.48 130.654 21.824C129.982 20.144 129.646 18.452 129.646 16.748C129.646 12.812 131.134 9.764 134.11 7.604H139.942C141.55 8.78 142.642 10.028 143.218 11.348C143.794 12.668 144.082 14 144.082 15.344C144.082 16.688 143.974 17.84 143.758 18.8H134.794C134.866 19.352 135.07 19.988 135.406 20.708C135.766 21.404 136.15 21.908 136.558 22.22H143.362Z" fill="white"/>
</svg>
