<svg width="106" height="32" viewBox="0 0 106 32" fill="none" xmlns="http://www.w3.org/2000/svg">
<path d="M0.18 15.56V12.068H12.204V15.56H0.18ZM4.428 19.988V7.604H7.884V19.988H4.428ZM20.331 21.824H23.355C23.883 21.248 24.255 20.672 24.471 20.096C24.711 19.496 24.831 18.62 24.831 17.468V0.799998H29.763V15.668C29.763 16.892 29.727 17.852 29.655 18.548C29.607 19.22 29.463 20.048 29.223 21.032C28.815 22.784 27.687 24.44 25.839 26H17.847C15.999 24.488 14.871 22.832 14.463 21.032C14.103 19.568 13.923 17.78 13.923 15.668V0.799998H18.855V17.468C18.855 18.62 18.963 19.496 19.179 20.096C19.419 20.672 19.803 21.248 20.331 21.824ZM32.8722 7.604H36.7242L37.2642 8.9C37.7922 8.42 38.2842 8.084 38.7402 7.892C39.2202 7.7 39.9282 7.604 40.8642 7.604H44.1042C45.1122 8.588 45.9042 9.86 46.4802 11.42C47.0562 12.98 47.3442 14.696 47.3442 16.568C47.3442 20.576 46.1442 23.72 43.7442 26H40.6842C39.4122 26 38.4042 25.664 37.6602 24.992V31.4H32.8722V7.604ZM37.6602 22.22H41.1162C42.0042 20.708 42.4482 18.872 42.4482 16.712C42.4482 14.552 41.9922 12.776 41.0802 11.384H37.6602V22.22ZM54.675 0.799998V26H49.923V0.799998H54.675ZM68.7068 26H60.8588C58.4588 23.768 57.2588 20.72 57.2588 16.856C57.2588 14.912 57.5228 13.22 58.0508 11.78C58.6028 10.34 59.4668 8.948 60.6428 7.604H69.0668C70.3148 9.044 71.1668 10.448 71.6228 11.816C72.0788 13.16 72.3068 14.84 72.3068 16.856C72.3068 20.72 71.1068 23.768 68.7068 26ZM63.4148 22.22H66.1508C67.0148 20.54 67.4468 18.632 67.4468 16.496C67.4468 14.36 67.0028 12.656 66.1148 11.384H63.4148C62.5508 12.608 62.1188 14.348 62.1188 16.604C62.1188 18.836 62.5508 20.708 63.4148 22.22ZM83.5599 17.684H79.7079C79.2039 18.308 78.9519 19.088 78.9519 20.024C78.9519 20.96 79.2159 21.692 79.7439 22.22H83.5599V17.684ZM75.8199 7.604H84.7479C86.1879 8.468 87.1359 9.464 87.5919 10.592C88.0479 11.696 88.2759 13.208 88.2759 15.128V20.528C88.2759 22.52 88.3239 24.344 88.4199 26H84.3159L83.6679 24.704C82.7319 25.568 81.4119 26 79.7079 26H77.4399C75.3999 24.656 74.3799 22.724 74.3799 20.204C74.3799 17.66 75.4239 15.656 77.5119 14.192H80.8959C81.8319 14.192 82.7079 14.48 83.5239 15.056V13.256C83.5239 12.32 83.1159 11.696 82.2999 11.384H75.8199V7.604ZM105.304 26H101.668L101.02 24.704C100.492 25.184 99.9882 25.52 99.5082 25.712C99.0522 25.904 98.3562 26 97.4202 26H94.2882C93.2322 24.992 92.3922 23.672 91.7682 22.04C91.1682 20.408 90.8682 18.584 90.8682 16.568C90.8682 14.528 91.1682 12.8 91.7682 11.384C92.3922 9.968 93.2682 8.708 94.3962 7.604H97.4922C98.7642 7.604 99.7722 7.94 100.516 8.612V0.799998H105.304V26ZM100.516 11.384H97.0602C96.1722 12.896 95.7282 14.756 95.7282 16.964C95.7282 19.148 96.1602 20.9 97.0242 22.22H100.516V11.384Z" fill="white"/>
</svg>
