<svg width="38" height="41" viewBox="0 0 38 41" fill="none" xmlns="http://www.w3.org/2000/svg">
<path d="M17.4167 14.6875C18.6764 14.6875 19.8846 15.2275 20.7754 16.1886C21.6662 17.1497 22.1667 18.4533 22.1667 19.8125C22.1667 21.1717 21.6662 22.4753 20.7754 23.4364C19.8846 24.3975 18.6764 24.9375 17.4167 24.9375C16.1569 24.9375 14.9487 24.3975 14.0579 23.4364C13.1671 22.4753 12.6667 21.1717 12.6667 19.8125C12.6667 18.4533 13.1671 17.1497 14.0579 16.1886C14.9487 15.2275 16.1569 14.6875 17.4167 14.6875ZM17.4167 7C25.3333 7 32.0942 12.3129 34.8333 19.8125C32.0942 27.3121 25.3333 32.625 17.4167 32.625C9.5 32.625 2.73917 27.3121 0 19.8125C2.73917 12.3129 9.5 7 17.4167 7ZM3.45167 19.8125C4.7314 22.6318 6.71857 25.0071 9.18726 26.6685C11.6559 28.3298 14.5071 29.2106 17.4167 29.2106C20.3262 29.2106 23.1774 28.3298 25.6461 26.6685C28.1148 25.0071 30.1019 22.6318 31.3817 19.8125C30.1019 16.9932 28.1148 14.6179 25.6461 12.9565C23.1774 11.2952 20.3262 10.4144 17.4167 10.4144C14.5071 10.4144 11.6559 11.2952 9.18726 12.9565C6.71857 14.6179 4.7314 16.9932 3.45167 19.8125Z" fill="white"/>
</svg>
