<svg width="41" height="41" viewBox="0 0 41 41" fill="none" xmlns="http://www.w3.org/2000/svg">
<path d="M3.41668 9.00296L5.60334 6.83337L34.1667 35.3967L31.9971 37.5834L26.7354 32.3217C24.7708 32.9709 22.6867 33.3125 20.5 33.3125C11.9583 33.3125 4.66376 27.9996 1.70834 20.5C2.88709 17.4934 4.76626 14.8455 7.15793 12.7442L3.41668 9.00296ZM20.5 15.375C21.8592 15.375 23.1628 15.915 24.1239 16.8761C25.0851 17.8372 25.625 19.1408 25.625 20.5C25.6259 21.0818 25.5277 21.6595 25.3346 22.2084L18.7917 15.6655C19.3405 15.4724 19.9182 15.3742 20.5 15.375ZM20.5 7.68754C29.0417 7.68754 36.3363 13.0005 39.2917 20.5C37.8966 24.0413 35.5275 27.1153 32.4583 29.3663L30.0325 26.9234C32.395 25.2893 34.3004 23.0781 35.5675 20.5C34.1866 17.6811 32.0424 15.3061 29.3788 13.6451C26.7152 11.9841 23.6391 11.1038 20.5 11.1042C18.6379 11.1042 16.81 11.4117 15.1017 11.9584L12.4708 9.34462C14.9308 8.28546 17.6471 7.68754 20.5 7.68754ZM5.43251 20.5C6.81343 23.319 8.95758 25.694 11.6212 27.355C14.2848 29.016 17.361 29.8963 20.5 29.8959C21.6788 29.8959 22.8404 29.7763 23.9167 29.5371L20.0217 25.625C18.833 25.4976 17.7237 24.9671 16.8783 24.1218C16.0329 23.2764 15.5024 22.1671 15.375 20.9784L9.56668 15.153C7.87543 16.605 6.45751 18.4159 5.43251 20.5Z" fill="white"/>
</svg>
