<svg width="72" height="63" viewBox="0 0 72 63" fill="none" xmlns="http://www.w3.org/2000/svg">
<path d="M18.1 18.625C18.1 18.1542 18.3028 17.7027 18.6638 17.3698C19.0248 17.037 19.5145 16.85 20.025 16.85C20.5356 16.85 21.0252 17.037 21.3862 17.3698C21.7472 17.7027 21.95 18.1542 21.95 18.625V23.95H27.725C28.2356 23.95 28.7252 24.137 29.0862 24.4698C29.4472 24.8027 29.65 25.2542 29.65 25.725C29.65 26.1957 29.4472 26.6472 29.0862 26.9801C28.7252 27.3129 28.2356 27.5 27.725 27.5H21.95V32.825C21.95 33.2957 21.7472 33.7472 21.3862 34.0801C21.0252 34.4129 20.5356 34.6 20.025 34.6C19.5145 34.6 19.0248 34.4129 18.6638 34.0801C18.3028 33.7472 18.1 33.2957 18.1 32.825V27.5H12.325C11.8145 27.5 11.3248 27.3129 10.9638 26.9801C10.6028 26.6472 10.4 26.1957 10.4 25.725C10.4 25.2542 10.6028 24.8027 10.9638 24.4698C11.3248 24.137 11.8145 23.95 12.325 23.95H18.1V18.625ZM52.75 20.4C52.75 21.3415 52.3444 22.2444 51.6224 22.9102C50.9004 23.5759 49.9211 23.95 48.9 23.95C47.8789 23.95 46.8997 23.5759 46.1777 22.9102C45.4556 22.2444 45.05 21.3415 45.05 20.4C45.05 19.4584 45.4556 18.5555 46.1777 17.8897C46.8997 17.224 47.8789 16.85 48.9 16.85C49.9211 16.85 50.9004 17.224 51.6224 17.8897C52.3444 18.5555 52.75 19.4584 52.75 20.4ZM41.2 34.6C42.2211 34.6 43.2004 34.2259 43.9224 33.5602C44.6444 32.8944 45.05 31.9915 45.05 31.05C45.05 30.1084 44.6444 29.2055 43.9224 28.5397C43.2004 27.874 42.2211 27.5 41.2 27.5C40.1789 27.5 39.1997 27.874 38.4777 28.5397C37.7556 29.2055 37.35 30.1084 37.35 31.05C37.35 31.9915 37.7556 32.8944 38.4777 33.5602C39.1997 34.2259 40.1789 34.6 41.2 34.6ZM2.70001 25.725C2.70001 20.5466 4.93094 15.5803 8.90203 11.9187C12.8731 8.25704 18.2591 6.19995 23.875 6.19995H43.125C48.741 6.19995 54.1269 8.25704 58.098 11.9187C62.0691 15.5803 64.3 20.5466 64.3 25.725C64.3 30.9033 62.0691 35.8696 58.098 39.5312C54.1269 43.1929 48.741 45.25 43.125 45.25H23.875C18.2591 45.25 12.8731 43.1929 8.90203 39.5312C4.93094 35.8696 2.70001 30.9033 2.70001 25.725ZM23.875 9.74995C19.2801 9.74995 14.8735 11.433 11.6244 14.4289C8.37532 17.4248 6.55001 21.4881 6.55001 25.725C6.55001 29.9618 8.37532 34.0251 11.6244 37.021C14.8735 40.0169 19.2801 41.7 23.875 41.7H43.125C45.4002 41.7 47.653 41.2868 49.755 40.4839C51.857 39.6811 53.7669 38.5044 55.3756 37.021C56.9844 35.5376 58.2606 33.7765 59.1312 31.8383C60.0019 29.9001 60.45 27.8228 60.45 25.725C60.45 23.6271 60.0019 21.5498 59.1312 19.6116C58.2606 17.6734 56.9844 15.9123 55.3756 14.4289C53.7669 12.9455 51.857 11.7688 49.755 10.966C47.653 10.1632 45.4002 9.74995 43.125 9.74995H23.875Z" fill="#F2613F"/>
</svg>
