<svg width="175" height="14" viewBox="0 0 175 14" fill="none" xmlns="http://www.w3.org/2000/svg">
<path d="M11.208 1.96V13H10.088V4.184L6.152 13H5.336L1.4 4.216V13H0.28V1.96H1.464L5.736 11.528L10.008 1.96H11.208ZM17.5728 13.128C16.7514 13.128 16.0101 12.9467 15.3488 12.584C14.6981 12.2107 14.1808 11.688 13.7968 11.016C13.4234 10.3333 13.2368 9.53867 13.2368 8.632C13.2368 7.72533 13.4288 6.936 13.8128 6.264C14.1968 5.58133 14.7194 5.05867 15.3808 4.696C16.0421 4.32267 16.7834 4.136 17.6048 4.136C18.4261 4.136 19.1674 4.32267 19.8288 4.696C20.5008 5.05867 21.0234 5.58133 21.3968 6.264C21.7808 6.936 21.9728 7.72533 21.9728 8.632C21.9728 9.528 21.7808 10.3173 21.3968 11C21.0128 11.6827 20.4848 12.2107 19.8128 12.584C19.1408 12.9467 18.3941 13.128 17.5728 13.128ZM17.5728 12.152C18.1488 12.152 18.6821 12.024 19.1728 11.768C19.6634 11.5013 20.0581 11.1067 20.3568 10.584C20.6661 10.0507 20.8208 9.4 20.8208 8.632C20.8208 7.864 20.6714 7.21867 20.3728 6.696C20.0741 6.16267 19.6794 5.768 19.1888 5.512C18.6981 5.24533 18.1648 5.112 17.5888 5.112C17.0128 5.112 16.4794 5.24533 15.9888 5.512C15.4981 5.768 15.1034 6.16267 14.8048 6.696C14.5168 7.21867 14.3728 7.864 14.3728 8.632C14.3728 9.4 14.5168 10.0507 14.8048 10.584C15.1034 11.1067 15.4928 11.5013 15.9728 11.768C16.4634 12.024 16.9968 12.152 17.5728 12.152ZM23.5024 8.616C23.5024 7.72 23.6837 6.936 24.0464 6.264C24.409 5.58133 24.905 5.05867 25.5344 4.696C26.1744 4.32267 26.8944 4.136 27.6944 4.136C28.4624 4.136 29.1557 4.32267 29.7744 4.696C30.393 5.06933 30.8464 5.55467 31.1344 6.152V1.16H32.2544V13H31.1344V11.048C30.8677 11.656 30.4304 12.1573 29.8224 12.552C29.2144 12.936 28.4997 13.128 27.6784 13.128C26.8784 13.128 26.1584 12.9413 25.5184 12.568C24.889 12.1947 24.393 11.6667 24.0304 10.984C23.6784 10.3013 23.5024 9.512 23.5024 8.616ZM31.1344 8.632C31.1344 7.928 30.9904 7.30933 30.7024 6.776C30.4144 6.24267 30.0197 5.832 29.5184 5.544C29.0277 5.256 28.4837 5.112 27.8864 5.112C27.2677 5.112 26.713 5.25067 26.2224 5.528C25.7317 5.80533 25.3424 6.21067 25.0544 6.744C24.777 7.26667 24.6384 7.89067 24.6384 8.616C24.6384 9.33067 24.777 9.96 25.0544 10.504C25.3424 11.0373 25.7317 11.448 26.2224 11.736C26.713 12.0133 27.2677 12.152 27.8864 12.152C28.4837 12.152 29.0277 12.008 29.5184 11.72C30.0197 11.432 30.4144 11.0213 30.7024 10.488C30.9904 9.95467 31.1344 9.336 31.1344 8.632ZM42.3793 4.264V13H41.2593V11.464C41.0033 12.008 40.6086 12.424 40.0753 12.712C39.5419 13 38.9446 13.144 38.2833 13.144C37.2379 13.144 36.3846 12.824 35.7233 12.184C35.0619 11.5333 34.7313 10.5947 34.7313 9.368V4.264H35.8353V9.24C35.8353 10.1893 36.0699 10.9147 36.5393 11.416C37.0193 11.9173 37.6699 12.168 38.4913 12.168C39.3339 12.168 40.0059 11.9013 40.5073 11.368C41.0086 10.8347 41.2593 10.0507 41.2593 9.016V4.264H42.3793ZM46.0563 1.16V13H44.9363V1.16H46.0563ZM56.4965 8.184C56.4965 8.568 56.4858 8.86133 56.4645 9.064H49.2165C49.2485 9.72533 49.4085 10.2907 49.6965 10.76C49.9845 11.2293 50.3632 11.5867 50.8325 11.832C51.3018 12.0667 51.8138 12.184 52.3685 12.184C53.0938 12.184 53.7018 12.008 54.1925 11.656C54.6938 11.304 55.0245 10.8293 55.1845 10.232H56.3685C56.1552 11.0853 55.6965 11.784 54.9925 12.328C54.2992 12.8613 53.4245 13.128 52.3685 13.128C51.5472 13.128 50.8112 12.9467 50.1605 12.584C49.5098 12.2107 48.9978 11.688 48.6245 11.016C48.2618 10.3333 48.0805 9.53867 48.0805 8.632C48.0805 7.72533 48.2618 6.93067 48.6245 6.248C48.9872 5.56533 49.4938 5.04267 50.1445 4.68C50.7952 4.31733 51.5365 4.136 52.3685 4.136C53.2005 4.136 53.9258 4.31733 54.5445 4.68C55.1738 5.04267 55.6538 5.53333 55.9845 6.152C56.3258 6.76 56.4965 7.43733 56.4965 8.184ZM55.3605 8.152C55.3712 7.50133 55.2378 6.94667 54.9605 6.488C54.6938 6.02933 54.3258 5.68267 53.8565 5.448C53.3872 5.21333 52.8752 5.096 52.3205 5.096C51.4885 5.096 50.7792 5.36267 50.1925 5.896C49.6058 6.42933 49.2805 7.18133 49.2165 8.152H55.3605ZM58.7376 13.08C58.503 13.08 58.3056 13 58.1456 12.84C57.9963 12.68 57.9216 12.4827 57.9216 12.248C57.9216 12.0133 57.9963 11.8213 58.1456 11.672C58.3056 11.512 58.503 11.432 58.7376 11.432C58.9616 11.432 59.1483 11.512 59.2976 11.672C59.4576 11.8213 59.5376 12.0133 59.5376 12.248C59.5376 12.4827 59.4576 12.68 59.2976 12.84C59.1483 13 58.9616 13.08 58.7376 13.08ZM58.7376 6.12C58.503 6.12 58.3056 6.04 58.1456 5.88C57.9963 5.72 57.9216 5.52267 57.9216 5.288C57.9216 5.05333 57.9963 4.86133 58.1456 4.712C58.3056 4.552 58.503 4.472 58.7376 4.472C58.9616 4.472 59.1483 4.552 59.2976 4.712C59.4576 4.86133 59.5376 5.05333 59.5376 5.288C59.5376 5.52267 59.4576 5.72 59.2976 5.88C59.1483 6.04 58.9616 6.12 58.7376 6.12ZM65.2754 6.718C65.2754 5.494 65.5574 4.396 66.1214 3.424C66.6974 2.452 67.4714 1.696 68.4434 1.156C69.4274 0.603999 70.5014 0.327999 71.6654 0.327999C72.9974 0.327999 74.1794 0.657999 75.2114 1.318C76.2554 1.966 77.0114 2.89 77.4794 4.09H75.0134C74.6894 3.43 74.2394 2.938 73.6634 2.614C73.0874 2.29 72.4214 2.128 71.6654 2.128C70.8374 2.128 70.0994 2.314 69.4514 2.686C68.8034 3.058 68.2934 3.592 67.9214 4.288C67.5614 4.984 67.3814 5.794 67.3814 6.718C67.3814 7.642 67.5614 8.452 67.9214 9.148C68.2934 9.844 68.8034 10.384 69.4514 10.768C70.0994 11.14 70.8374 11.326 71.6654 11.326C72.4214 11.326 73.0874 11.164 73.6634 10.84C74.2394 10.516 74.6894 10.024 75.0134 9.364H77.4794C77.0114 10.564 76.2554 11.488 75.2114 12.136C74.1794 12.784 72.9974 13.108 71.6654 13.108C70.4894 13.108 69.4154 12.838 68.4434 12.298C67.4714 11.746 66.6974 10.984 66.1214 10.012C65.5574 9.04 65.2754 7.942 65.2754 6.718ZM87.4233 10.444H82.1853L81.2853 13H79.1433L83.6253 0.471999H86.0013L90.4833 13H88.3233L87.4233 10.444ZM86.8473 8.77L84.8133 2.956L82.7613 8.77H86.8473ZM100.514 0.489999V2.164H97.184V13H95.132V2.164H91.784V0.489999H100.514ZM104.644 2.146V5.818H108.964V7.492H104.644V11.326H109.504V13H102.592V0.471999H109.504V2.146H104.644ZM121.086 4.09C120.762 3.466 120.312 2.998 119.736 2.686C119.16 2.362 118.494 2.2 117.738 2.2C116.91 2.2 116.172 2.386 115.524 2.758C114.876 3.13 114.366 3.658 113.994 4.342C113.634 5.026 113.454 5.818 113.454 6.718C113.454 7.618 113.634 8.416 113.994 9.112C114.366 9.796 114.876 10.324 115.524 10.696C116.172 11.068 116.91 11.254 117.738 11.254C118.854 11.254 119.76 10.942 120.456 10.318C121.152 9.694 121.578 8.848 121.734 7.78H117.036V6.142H123.93V7.744C123.798 8.716 123.45 9.61 122.886 10.426C122.334 11.242 121.608 11.896 120.708 12.388C119.82 12.868 118.83 13.108 117.738 13.108C116.562 13.108 115.488 12.838 114.516 12.298C113.544 11.746 112.77 10.984 112.194 10.012C111.63 9.04 111.348 7.942 111.348 6.718C111.348 5.494 111.63 4.396 112.194 3.424C112.77 2.452 113.544 1.696 114.516 1.156C115.5 0.603999 116.574 0.327999 117.738 0.327999C119.07 0.327999 120.252 0.657999 121.284 1.318C122.328 1.966 123.084 2.89 123.552 4.09H121.086ZM131.66 13.126C130.496 13.126 129.422 12.856 128.438 12.316C127.466 11.764 126.692 11.002 126.116 10.03C125.552 9.046 125.27 7.942 125.27 6.718C125.27 5.494 125.552 4.396 126.116 3.424C126.692 2.452 127.466 1.696 128.438 1.156C129.422 0.603999 130.496 0.327999 131.66 0.327999C132.836 0.327999 133.91 0.603999 134.882 1.156C135.866 1.696 136.64 2.452 137.204 3.424C137.768 4.396 138.05 5.494 138.05 6.718C138.05 7.942 137.768 9.046 137.204 10.03C136.64 11.002 135.866 11.764 134.882 12.316C133.91 12.856 132.836 13.126 131.66 13.126ZM131.66 11.344C132.488 11.344 133.226 11.158 133.874 10.786C134.522 10.402 135.026 9.862 135.386 9.166C135.758 8.458 135.944 7.642 135.944 6.718C135.944 5.794 135.758 4.984 135.386 4.288C135.026 3.592 134.522 3.058 133.874 2.686C133.226 2.314 132.488 2.128 131.66 2.128C130.832 2.128 130.094 2.314 129.446 2.686C128.798 3.058 128.288 3.592 127.916 4.288C127.556 4.984 127.376 5.794 127.376 6.718C127.376 7.642 127.556 8.458 127.916 9.166C128.288 9.862 128.798 10.402 129.446 10.786C130.094 11.158 130.832 11.344 131.66 11.344ZM146.567 13L143.687 7.996H142.121V13H140.069V0.489999H144.389C145.349 0.489999 146.159 0.657999 146.819 0.993999C147.491 1.33 147.989 1.78 148.313 2.344C148.649 2.908 148.817 3.538 148.817 4.234C148.817 5.05 148.577 5.794 148.097 6.466C147.629 7.126 146.903 7.576 145.919 7.816L149.015 13H146.567ZM142.121 6.358H144.389C145.157 6.358 145.733 6.166 146.117 5.782C146.513 5.398 146.711 4.882 146.711 4.234C146.711 3.586 146.519 3.082 146.135 2.722C145.751 2.35 145.169 2.164 144.389 2.164H142.121V6.358ZM153.494 0.489999V13H151.442V0.489999H153.494ZM158.24 2.146V5.818H162.56V7.492H158.24V11.326H163.1V13H156.188V0.471999H163.1V2.146H158.24ZM169.749 13.126C168.909 13.126 168.153 12.982 167.481 12.694C166.809 12.394 166.281 11.974 165.897 11.434C165.513 10.894 165.321 10.264 165.321 9.544H167.517C167.565 10.084 167.775 10.528 168.147 10.876C168.531 11.224 169.065 11.398 169.749 11.398C170.457 11.398 171.009 11.23 171.405 10.894C171.801 10.546 171.999 10.102 171.999 9.562C171.999 9.142 171.873 8.8 171.621 8.536C171.381 8.272 171.075 8.068 170.703 7.924C170.343 7.78 169.839 7.624 169.191 7.456C168.375 7.24 167.709 7.024 167.193 6.808C166.689 6.58 166.257 6.232 165.897 5.764C165.537 5.296 165.357 4.672 165.357 3.892C165.357 3.172 165.537 2.542 165.897 2.002C166.257 1.462 166.761 1.048 167.409 0.76C168.057 0.471999 168.807 0.327999 169.659 0.327999C170.871 0.327999 171.861 0.633999 172.629 1.246C173.409 1.846 173.841 2.674 173.925 3.73H171.657C171.621 3.274 171.405 2.884 171.009 2.56C170.613 2.236 170.091 2.074 169.443 2.074C168.855 2.074 168.375 2.224 168.003 2.524C167.631 2.824 167.445 3.256 167.445 3.82C167.445 4.204 167.559 4.522 167.787 4.774C168.027 5.014 168.327 5.206 168.687 5.35C169.047 5.494 169.539 5.65 170.163 5.818C170.991 6.046 171.663 6.274 172.179 6.502C172.707 6.73 173.151 7.084 173.511 7.564C173.883 8.032 174.069 8.662 174.069 9.454C174.069 10.09 173.895 10.69 173.547 11.254C173.211 11.818 172.713 12.274 172.053 12.622C171.405 12.958 170.637 13.126 169.749 13.126Z" fill="white"/>
</svg>
