<svg width="119" height="14" viewBox="0 0 119 14" fill="none" xmlns="http://www.w3.org/2000/svg">
<path d="M11.208 1.96V13H10.088V4.184L6.152 13H5.336L1.4 4.216V13H0.28V1.96H1.464L5.736 11.528L10.008 1.96H11.208ZM17.5728 13.128C16.7514 13.128 16.0101 12.9467 15.3488 12.584C14.6981 12.2107 14.1808 11.688 13.7968 11.016C13.4234 10.3333 13.2368 9.53867 13.2368 8.632C13.2368 7.72533 13.4288 6.936 13.8128 6.264C14.1968 5.58133 14.7194 5.05867 15.3808 4.696C16.0421 4.32267 16.7834 4.136 17.6048 4.136C18.4261 4.136 19.1674 4.32267 19.8288 4.696C20.5008 5.05867 21.0234 5.58133 21.3968 6.264C21.7808 6.936 21.9728 7.72533 21.9728 8.632C21.9728 9.528 21.7808 10.3173 21.3968 11C21.0128 11.6827 20.4848 12.2107 19.8128 12.584C19.1408 12.9467 18.3941 13.128 17.5728 13.128ZM17.5728 12.152C18.1488 12.152 18.6821 12.024 19.1728 11.768C19.6634 11.5013 20.0581 11.1067 20.3568 10.584C20.6661 10.0507 20.8208 9.4 20.8208 8.632C20.8208 7.864 20.6714 7.21867 20.3728 6.696C20.0741 6.16267 19.6794 5.768 19.1888 5.512C18.6981 5.24533 18.1648 5.112 17.5888 5.112C17.0128 5.112 16.4794 5.24533 15.9888 5.512C15.4981 5.768 15.1034 6.16267 14.8048 6.696C14.5168 7.21867 14.3728 7.864 14.3728 8.632C14.3728 9.4 14.5168 10.0507 14.8048 10.584C15.1034 11.1067 15.4928 11.5013 15.9728 11.768C16.4634 12.024 16.9968 12.152 17.5728 12.152ZM23.5024 8.616C23.5024 7.72 23.6837 6.936 24.0464 6.264C24.409 5.58133 24.905 5.05867 25.5344 4.696C26.1744 4.32267 26.8944 4.136 27.6944 4.136C28.4624 4.136 29.1557 4.32267 29.7744 4.696C30.393 5.06933 30.8464 5.55467 31.1344 6.152V1.16H32.2544V13H31.1344V11.048C30.8677 11.656 30.4304 12.1573 29.8224 12.552C29.2144 12.936 28.4997 13.128 27.6784 13.128C26.8784 13.128 26.1584 12.9413 25.5184 12.568C24.889 12.1947 24.393 11.6667 24.0304 10.984C23.6784 10.3013 23.5024 9.512 23.5024 8.616ZM31.1344 8.632C31.1344 7.928 30.9904 7.30933 30.7024 6.776C30.4144 6.24267 30.0197 5.832 29.5184 5.544C29.0277 5.256 28.4837 5.112 27.8864 5.112C27.2677 5.112 26.713 5.25067 26.2224 5.528C25.7317 5.80533 25.3424 6.21067 25.0544 6.744C24.777 7.26667 24.6384 7.89067 24.6384 8.616C24.6384 9.33067 24.777 9.96 25.0544 10.504C25.3424 11.0373 25.7317 11.448 26.2224 11.736C26.713 12.0133 27.2677 12.152 27.8864 12.152C28.4837 12.152 29.0277 12.008 29.5184 11.72C30.0197 11.432 30.4144 11.0213 30.7024 10.488C30.9904 9.95467 31.1344 9.336 31.1344 8.632ZM42.3793 4.264V13H41.2593V11.464C41.0033 12.008 40.6086 12.424 40.0753 12.712C39.5419 13 38.9446 13.144 38.2833 13.144C37.2379 13.144 36.3846 12.824 35.7233 12.184C35.0619 11.5333 34.7313 10.5947 34.7313 9.368V4.264H35.8353V9.24C35.8353 10.1893 36.0699 10.9147 36.5393 11.416C37.0193 11.9173 37.6699 12.168 38.4913 12.168C39.3339 12.168 40.0059 11.9013 40.5073 11.368C41.0086 10.8347 41.2593 10.0507 41.2593 9.016V4.264H42.3793ZM46.0563 1.16V13H44.9363V1.16H46.0563ZM56.4965 8.184C56.4965 8.568 56.4858 8.86133 56.4645 9.064H49.2165C49.2485 9.72533 49.4085 10.2907 49.6965 10.76C49.9845 11.2293 50.3632 11.5867 50.8325 11.832C51.3018 12.0667 51.8138 12.184 52.3685 12.184C53.0938 12.184 53.7018 12.008 54.1925 11.656C54.6938 11.304 55.0245 10.8293 55.1845 10.232H56.3685C56.1552 11.0853 55.6965 11.784 54.9925 12.328C54.2992 12.8613 53.4245 13.128 52.3685 13.128C51.5472 13.128 50.8112 12.9467 50.1605 12.584C49.5098 12.2107 48.9978 11.688 48.6245 11.016C48.2618 10.3333 48.0805 9.53867 48.0805 8.632C48.0805 7.72533 48.2618 6.93067 48.6245 6.248C48.9872 5.56533 49.4938 5.04267 50.1445 4.68C50.7952 4.31733 51.5365 4.136 52.3685 4.136C53.2005 4.136 53.9258 4.31733 54.5445 4.68C55.1738 5.04267 55.6538 5.53333 55.9845 6.152C56.3258 6.76 56.4965 7.43733 56.4965 8.184ZM55.3605 8.152C55.3712 7.50133 55.2378 6.94667 54.9605 6.488C54.6938 6.02933 54.3258 5.68267 53.8565 5.448C53.3872 5.21333 52.8752 5.096 52.3205 5.096C51.4885 5.096 50.7792 5.36267 50.1925 5.896C49.6058 6.42933 49.2805 7.18133 49.2165 8.152H55.3605ZM58.7376 13.08C58.503 13.08 58.3056 13 58.1456 12.84C57.9963 12.68 57.9216 12.4827 57.9216 12.248C57.9216 12.0133 57.9963 11.8213 58.1456 11.672C58.3056 11.512 58.503 11.432 58.7376 11.432C58.9616 11.432 59.1483 11.512 59.2976 11.672C59.4576 11.8213 59.5376 12.0133 59.5376 12.248C59.5376 12.4827 59.4576 12.68 59.2976 12.84C59.1483 13 58.9616 13.08 58.7376 13.08ZM58.7376 6.12C58.503 6.12 58.3056 6.04 58.1456 5.88C57.9963 5.72 57.9216 5.52267 57.9216 5.288C57.9216 5.05333 57.9963 4.86133 58.1456 4.712C58.3056 4.552 58.503 4.472 58.7376 4.472C58.9616 4.472 59.1483 4.552 59.2976 4.712C59.4576 4.86133 59.5376 5.05333 59.5376 5.288C59.5376 5.52267 59.4576 5.72 59.2976 5.88C59.1483 6.04 58.9616 6.12 58.7376 6.12ZM67.9934 0.489999V8.464C67.9934 9.412 68.2394 10.126 68.7314 10.606C69.2354 11.086 69.9314 11.326 70.8194 11.326C71.7194 11.326 72.4154 11.086 72.9074 10.606C73.4114 10.126 73.6634 9.412 73.6634 8.464V0.489999H75.7154V8.428C75.7154 9.448 75.4934 10.312 75.0494 11.02C74.6054 11.728 74.0114 12.256 73.2674 12.604C72.5234 12.952 71.7014 13.126 70.8014 13.126C69.9014 13.126 69.0794 12.952 68.3354 12.604C67.6034 12.256 67.0214 11.728 66.5894 11.02C66.1574 10.312 65.9414 9.448 65.9414 8.428V0.489999H67.9934ZM82.5091 13.126C81.6691 13.126 80.9131 12.982 80.2411 12.694C79.5691 12.394 79.0411 11.974 78.6571 11.434C78.2731 10.894 78.0811 10.264 78.0811 9.544H80.2771C80.3251 10.084 80.5351 10.528 80.9071 10.876C81.2911 11.224 81.8251 11.398 82.5091 11.398C83.2171 11.398 83.7691 11.23 84.1651 10.894C84.5611 10.546 84.7591 10.102 84.7591 9.562C84.7591 9.142 84.6331 8.8 84.3811 8.536C84.1411 8.272 83.8351 8.068 83.4631 7.924C83.1031 7.78 82.5991 7.624 81.9511 7.456C81.1351 7.24 80.4691 7.024 79.9531 6.808C79.4491 6.58 79.0171 6.232 78.6571 5.764C78.2971 5.296 78.1171 4.672 78.1171 3.892C78.1171 3.172 78.2971 2.542 78.6571 2.002C79.0171 1.462 79.5211 1.048 80.1691 0.76C80.8171 0.471999 81.5671 0.327999 82.4191 0.327999C83.6311 0.327999 84.6211 0.633999 85.3891 1.246C86.1691 1.846 86.6011 2.674 86.6851 3.73H84.4171C84.3811 3.274 84.1651 2.884 83.7691 2.56C83.3731 2.236 82.8511 2.074 82.2031 2.074C81.6151 2.074 81.1351 2.224 80.7631 2.524C80.3911 2.824 80.2051 3.256 80.2051 3.82C80.2051 4.204 80.3191 4.522 80.5471 4.774C80.7871 5.014 81.0871 5.206 81.4471 5.35C81.8071 5.494 82.2991 5.65 82.9231 5.818C83.7511 6.046 84.4231 6.274 84.9391 6.502C85.4671 6.73 85.9111 7.084 86.2711 7.564C86.6431 8.032 86.8291 8.662 86.8291 9.454C86.8291 10.09 86.6551 10.69 86.3071 11.254C85.9711 11.818 85.4731 12.274 84.8131 12.622C84.1651 12.958 83.3971 13.126 82.5091 13.126ZM91.3024 2.146V5.818H95.6224V7.492H91.3024V11.326H96.1624V13H89.2504V0.471999H96.1624V2.146H91.3024ZM105.188 13L102.308 7.996H100.742V13H98.6898V0.489999H103.01C103.97 0.489999 104.78 0.657999 105.44 0.993999C106.112 1.33 106.61 1.78 106.934 2.344C107.27 2.908 107.438 3.538 107.438 4.234C107.438 5.05 107.198 5.794 106.718 6.466C106.25 7.126 105.524 7.576 104.54 7.816L107.636 13H105.188ZM100.742 6.358H103.01C103.778 6.358 104.354 6.166 104.738 5.782C105.134 5.398 105.332 4.882 105.332 4.234C105.332 3.586 105.14 3.082 104.756 2.722C104.372 2.35 103.79 2.164 103.01 2.164H100.742V6.358ZM114.185 13.126C113.345 13.126 112.589 12.982 111.917 12.694C111.245 12.394 110.717 11.974 110.333 11.434C109.949 10.894 109.757 10.264 109.757 9.544H111.953C112.001 10.084 112.211 10.528 112.583 10.876C112.967 11.224 113.501 11.398 114.185 11.398C114.893 11.398 115.445 11.23 115.841 10.894C116.237 10.546 116.435 10.102 116.435 9.562C116.435 9.142 116.309 8.8 116.057 8.536C115.817 8.272 115.511 8.068 115.139 7.924C114.779 7.78 114.275 7.624 113.627 7.456C112.811 7.24 112.145 7.024 111.629 6.808C111.125 6.58 110.693 6.232 110.333 5.764C109.973 5.296 109.793 4.672 109.793 3.892C109.793 3.172 109.973 2.542 110.333 2.002C110.693 1.462 111.197 1.048 111.845 0.76C112.493 0.471999 113.243 0.327999 114.095 0.327999C115.307 0.327999 116.297 0.633999 117.065 1.246C117.845 1.846 118.277 2.674 118.361 3.73H116.093C116.057 3.274 115.841 2.884 115.445 2.56C115.049 2.236 114.527 2.074 113.879 2.074C113.291 2.074 112.811 2.224 112.439 2.524C112.067 2.824 111.881 3.256 111.881 3.82C111.881 4.204 111.995 4.522 112.223 4.774C112.463 5.014 112.763 5.206 113.123 5.35C113.483 5.494 113.975 5.65 114.599 5.818C115.427 6.046 116.099 6.274 116.615 6.502C117.143 6.73 117.587 7.084 117.947 7.564C118.319 8.032 118.505 8.662 118.505 9.454C118.505 10.09 118.331 10.69 117.983 11.254C117.647 11.818 117.149 12.274 116.489 12.622C115.841 12.958 115.073 13.126 114.185 13.126Z" fill="white"/>
</svg>
